<svg width="48" height="48" viewBox="0 0 48 48" fill="none" xmlns="http://www.w3.org/2000/svg">
<g clip-path="url(#clip0_2190_6938)">
<path d="M20.9897 22.6071C21.6954 22.2521 22.2289 21.8568 22.5945 21.4296C23.2448 20.6601 23.5658 19.6399 23.5658 18.3753C23.5658 17.1446 23.2448 16.0925 22.603 15.2105C21.5317 13.7737 19.7187 13.0383 17.1554 13H7V33.7296H16.4689C17.5359 33.7296 18.5242 33.6382 19.4382 33.4511C20.3521 33.2619 21.1428 32.9155 21.8123 32.4096C22.4074 31.9697 22.9048 31.4234 23.3001 30.7794C23.925 29.806 24.2374 28.7029 24.2374 27.4743C24.2374 26.2841 23.9632 25.2702 23.4191 24.4371C22.8686 23.6039 22.061 22.9939 20.9897 22.6071ZM11.1893 16.6005H15.7632C16.7686 16.6005 17.5975 16.7089 18.2479 16.9236C19.0003 17.236 19.3765 17.8715 19.3765 18.8407C19.3765 19.7101 19.0896 20.3179 18.5221 20.6601C17.9503 21.0023 17.2086 21.1745 16.2989 21.1745H11.1893V16.6005ZM18.4222 29.7677C17.9163 30.0121 17.2043 30.1333 16.2925 30.1333H11.1893V24.605H16.3626C17.2638 24.6114 17.9652 24.7304 18.4668 24.9536C19.3595 25.3574 19.8037 26.097 19.8037 27.1789C19.8037 28.4542 19.3446 29.3129 18.4222 29.7677Z" fill="#797979"/>
<path d="M37.7315 13.9766H28.7266V16.5567H37.7315V13.9766Z" fill="#797979"/>
<path d="M40.8606 24.1549C40.6736 22.9541 40.2613 21.8978 39.6194 20.9861C38.9159 19.9532 38.0233 19.1966 36.9373 18.7184C35.8555 18.238 34.6377 17.9979 33.2817 18C31.0055 18 29.1565 18.712 27.7261 20.1253C26.3 21.5429 25.5859 23.5811 25.5859 26.2377C25.5859 29.0708 26.3744 31.1175 27.9599 32.3735C29.539 33.6317 31.3626 34.2587 33.4326 34.2587C35.9384 34.2587 37.8873 33.5127 39.2794 32.025C40.1699 31.0856 40.6736 30.1611 40.7841 29.2536H36.6355C36.3953 29.702 36.1169 30.0527 35.7981 30.3077C35.22 30.7753 34.4676 31.0091 33.5453 31.0091C32.6675 31.0091 31.9236 30.8157 31.303 30.431C30.2786 29.8147 29.7431 28.735 29.6751 27.1984H40.9966C41.0136 25.8743 40.9711 24.8563 40.8606 24.1549ZM29.7771 24.5524C29.9258 23.5556 30.2871 22.765 30.861 22.1805C31.4348 21.5982 32.2467 21.3049 33.286 21.3028C34.2445 21.3028 35.0457 21.5769 35.6982 22.1274C36.3422 22.6821 36.7056 23.4876 36.78 24.5524H29.7771Z" fill="#797979"/>
</g>
<defs>
<clipPath id="clip0_2190_6938">
<rect width="48" height="48" fill="white"/>
</clipPath>
</defs>
</svg>
