<svg width="783" height="158" viewBox="0 0 783 158" fill="none" xmlns="http://www.w3.org/2000/svg">
<path d="M302.944 56V38.96H306.256V56H302.944ZM321.308 56H318.092V48.944C318.092 47.936 317.916 47.2 317.564 46.736C317.212 46.272 316.724 46.04 316.1 46.04C315.668 46.04 315.228 46.152 314.78 46.376C314.348 46.6 313.956 46.912 313.604 47.312C313.252 47.696 312.996 48.144 312.836 48.656V56H309.62V43.424H312.524V45.752C312.844 45.208 313.252 44.752 313.748 44.384C314.244 44 314.812 43.712 315.452 43.52C316.108 43.312 316.796 43.208 317.516 43.208C318.3 43.208 318.94 43.352 319.436 43.64C319.948 43.912 320.332 44.288 320.588 44.768C320.86 45.232 321.044 45.76 321.14 46.352C321.252 46.944 321.308 47.544 321.308 48.152V56ZM324.224 56V43.424H327.44V56H324.224ZM324.224 41.672V38.48H327.44V41.672H324.224ZM337.997 55.352C337.725 55.464 337.397 55.592 337.013 55.736C336.629 55.88 336.213 55.992 335.765 56.072C335.333 56.168 334.893 56.216 334.445 56.216C333.853 56.216 333.309 56.112 332.813 55.904C332.317 55.696 331.917 55.368 331.613 54.92C331.325 54.456 331.181 53.856 331.181 53.12V45.896H329.525V43.424H331.181V39.344H334.397V43.424H337.037V45.896H334.397V52.04C334.413 52.472 334.533 52.784 334.757 52.976C334.981 53.168 335.261 53.264 335.597 53.264C335.933 53.264 336.261 53.208 336.581 53.096C336.901 52.984 337.157 52.888 337.349 52.808L337.997 55.352ZM339.792 56V43.424H343.008V56H339.792ZM339.792 41.672V38.48H343.008V41.672H339.792ZM345.165 52.28C345.165 51.464 345.389 50.752 345.837 50.144C346.301 49.52 346.941 49.04 347.757 48.704C348.573 48.368 349.509 48.2 350.565 48.2C351.093 48.2 351.629 48.24 352.173 48.32C352.717 48.4 353.189 48.528 353.589 48.704V48.032C353.589 47.232 353.349 46.616 352.869 46.184C352.405 45.752 351.709 45.536 350.781 45.536C350.093 45.536 349.437 45.656 348.813 45.896C348.189 46.136 347.533 46.488 346.845 46.952L345.813 44.84C346.645 44.296 347.493 43.888 348.357 43.616C349.237 43.344 350.157 43.208 351.117 43.208C352.909 43.208 354.301 43.656 355.293 44.552C356.301 45.448 356.805 46.728 356.805 48.392V52.4C356.805 52.736 356.861 52.976 356.973 53.12C357.101 53.264 357.301 53.352 357.573 53.384V56C357.285 56.048 357.021 56.088 356.781 56.12C356.557 56.152 356.365 56.168 356.205 56.168C355.565 56.168 355.077 56.024 354.741 55.736C354.421 55.448 354.221 55.096 354.141 54.68L354.069 54.032C353.525 54.736 352.845 55.28 352.029 55.664C351.213 56.048 350.381 56.24 349.533 56.24C348.701 56.24 347.949 56.072 347.277 55.736C346.621 55.384 346.101 54.912 345.717 54.32C345.349 53.712 345.165 53.032 345.165 52.28ZM352.989 52.928C353.165 52.736 353.309 52.544 353.421 52.352C353.533 52.16 353.589 51.984 353.589 51.824V50.552C353.205 50.392 352.789 50.272 352.341 50.192C351.893 50.096 351.469 50.048 351.069 50.048C350.237 50.048 349.549 50.232 349.005 50.6C348.477 50.952 348.213 51.424 348.213 52.016C348.213 52.336 348.301 52.64 348.477 52.928C348.653 53.216 348.909 53.448 349.245 53.624C349.581 53.8 349.981 53.888 350.445 53.888C350.925 53.888 351.397 53.8 351.861 53.624C352.325 53.432 352.701 53.2 352.989 52.928ZM359.906 38.48H363.122V51.968C363.122 52.544 363.218 52.936 363.41 53.144C363.602 53.336 363.866 53.432 364.202 53.432C364.458 53.432 364.722 53.4 364.994 53.336C365.266 53.272 365.506 53.192 365.714 53.096L366.146 55.544C365.714 55.752 365.21 55.912 364.634 56.024C364.058 56.136 363.538 56.192 363.074 56.192C362.066 56.192 361.282 55.928 360.722 55.4C360.178 54.856 359.906 54.088 359.906 53.096V38.48ZM385.25 41.864H379.802V56H376.514V41.864H371.066V38.96H385.25V41.864ZM398.861 56H395.645V48.944C395.645 47.968 395.453 47.24 395.069 46.76C394.701 46.28 394.189 46.04 393.533 46.04C393.149 46.04 392.741 46.152 392.309 46.376C391.877 46.6 391.485 46.912 391.133 47.312C390.797 47.696 390.549 48.144 390.389 48.656V56H387.173V38.48H390.389V45.752C390.853 44.952 391.485 44.328 392.285 43.88C393.085 43.432 393.957 43.208 394.901 43.208C395.717 43.208 396.381 43.352 396.893 43.64C397.405 43.912 397.805 44.288 398.093 44.768C398.381 45.232 398.581 45.76 398.693 46.352C398.805 46.928 398.861 47.528 398.861 48.152V56ZM407.586 56.24C406.562 56.24 405.642 56.072 404.826 55.736C404.01 55.384 403.314 54.904 402.738 54.296C402.178 53.688 401.746 52.992 401.442 52.208C401.138 51.424 400.986 50.6 400.986 49.736C400.986 48.856 401.138 48.024 401.442 47.24C401.746 46.456 402.178 45.76 402.738 45.152C403.314 44.544 404.01 44.072 404.826 43.736C405.642 43.384 406.562 43.208 407.586 43.208C408.61 43.208 409.522 43.384 410.322 43.736C411.138 44.072 411.834 44.544 412.41 45.152C412.986 45.76 413.418 46.456 413.706 47.24C414.01 48.024 414.162 48.856 414.162 49.736C414.162 50.6 414.01 51.424 413.706 52.208C413.418 52.992 412.986 53.688 412.41 54.296C411.85 54.904 411.162 55.384 410.346 55.736C409.53 56.072 408.61 56.24 407.586 56.24ZM404.298 49.736C404.298 50.472 404.442 51.128 404.73 51.704C405.018 52.264 405.41 52.704 405.906 53.024C406.402 53.344 406.962 53.504 407.586 53.504C408.194 53.504 408.746 53.344 409.242 53.024C409.738 52.688 410.13 52.24 410.418 51.68C410.722 51.104 410.874 50.448 410.874 49.712C410.874 48.992 410.722 48.344 410.418 47.768C410.13 47.192 409.738 46.744 409.242 46.424C408.746 46.104 408.194 45.944 407.586 45.944C406.962 45.944 406.402 46.112 405.906 46.448C405.41 46.768 405.018 47.216 404.73 47.792C404.442 48.352 404.298 49 404.298 49.736ZM416.332 51.296V43.424H419.548V50.6C419.548 51.56 419.724 52.288 420.076 52.784C420.428 53.264 420.948 53.504 421.636 53.504C422.052 53.504 422.46 53.424 422.86 53.264C423.276 53.088 423.652 52.832 423.988 52.496C424.34 52.16 424.636 51.736 424.876 51.224V43.424H428.092V52.4C428.092 52.736 428.148 52.976 428.26 53.12C428.388 53.264 428.588 53.352 428.86 53.384V56C428.54 56.048 428.268 56.08 428.044 56.096C427.836 56.128 427.644 56.144 427.468 56.144C426.892 56.144 426.42 56.016 426.052 55.76C425.7 55.488 425.492 55.12 425.428 54.656L425.356 53.648C424.796 54.496 424.076 55.144 423.196 55.592C422.316 56.024 421.348 56.24 420.292 56.24C418.996 56.24 418.012 55.824 417.34 54.992C416.668 54.144 416.332 52.912 416.332 51.296ZM436.328 56.072C435.496 56.072 434.728 55.912 434.024 55.592C433.336 55.256 432.736 54.792 432.224 54.2C431.728 53.608 431.344 52.928 431.072 52.16C430.8 51.392 430.664 50.576 430.664 49.712C430.664 48.8 430.808 47.952 431.096 47.168C431.384 46.384 431.784 45.696 432.296 45.104C432.824 44.496 433.44 44.032 434.144 43.712C434.864 43.376 435.656 43.208 436.52 43.208C437.496 43.208 438.352 43.432 439.088 43.88C439.824 44.312 440.432 44.896 440.912 45.632V43.424H443.72V55.4C443.72 56.648 443.416 57.712 442.808 58.592C442.216 59.488 441.392 60.168 440.336 60.632C439.28 61.112 438.08 61.352 436.736 61.352C435.376 61.352 434.224 61.12 433.28 60.656C432.336 60.208 431.528 59.568 430.856 58.736L432.608 57.032C433.088 57.624 433.688 58.088 434.408 58.424C435.144 58.76 435.92 58.928 436.736 58.928C437.424 58.928 438.048 58.8 438.608 58.544C439.184 58.304 439.64 57.92 439.976 57.392C440.328 56.88 440.504 56.216 440.504 55.4V53.816C440.088 54.536 439.496 55.096 438.728 55.496C437.976 55.88 437.176 56.072 436.328 56.072ZM437.408 53.504C437.76 53.504 438.096 53.448 438.416 53.336C438.736 53.224 439.032 53.072 439.304 52.88C439.576 52.688 439.816 52.464 440.024 52.208C440.232 51.936 440.392 51.664 440.504 51.392V48.392C440.312 47.896 440.04 47.464 439.688 47.096C439.352 46.728 438.968 46.448 438.536 46.256C438.12 46.048 437.68 45.944 437.216 45.944C436.72 45.944 436.272 46.048 435.872 46.256C435.472 46.464 435.128 46.76 434.84 47.144C434.552 47.512 434.328 47.928 434.168 48.392C434.024 48.84 433.952 49.312 433.952 49.808C433.952 50.32 434.04 50.8 434.216 51.248C434.392 51.696 434.632 52.088 434.936 52.424C435.256 52.76 435.624 53.024 436.04 53.216C436.472 53.408 436.928 53.504 437.408 53.504ZM458.427 56H455.211V48.944C455.211 47.968 455.019 47.24 454.635 46.76C454.267 46.28 453.755 46.04 453.099 46.04C452.715 46.04 452.307 46.152 451.875 46.376C451.443 46.6 451.051 46.912 450.699 47.312C450.363 47.696 450.115 48.144 449.955 48.656V56H446.739V38.48H449.955V45.752C450.419 44.952 451.051 44.328 451.851 43.88C452.651 43.432 453.523 43.208 454.467 43.208C455.283 43.208 455.947 43.352 456.459 43.64C456.971 43.912 457.371 44.288 457.659 44.768C457.947 45.232 458.147 45.76 458.259 46.352C458.371 46.928 458.427 47.528 458.427 48.152V56ZM468.809 55.352C468.537 55.464 468.209 55.592 467.825 55.736C467.441 55.88 467.025 55.992 466.577 56.072C466.145 56.168 465.705 56.216 465.257 56.216C464.665 56.216 464.121 56.112 463.625 55.904C463.129 55.696 462.729 55.368 462.425 54.92C462.137 54.456 461.993 53.856 461.993 53.12V45.896H460.337V43.424H461.993V39.344H465.209V43.424H467.849V45.896H465.209V52.04C465.225 52.472 465.345 52.784 465.569 52.976C465.793 53.168 466.073 53.264 466.409 53.264C466.745 53.264 467.073 53.208 467.393 53.096C467.713 52.984 467.969 52.888 468.161 52.808L468.809 55.352ZM475.236 56.24C474.164 56.24 473.14 56.064 472.164 55.712C471.188 55.36 470.348 54.84 469.644 54.152L470.796 52.064C471.548 52.672 472.284 53.12 473.004 53.408C473.74 53.696 474.444 53.84 475.116 53.84C475.74 53.84 476.236 53.728 476.604 53.504C476.988 53.28 477.18 52.944 477.18 52.496C477.18 52.192 477.076 51.96 476.868 51.8C476.66 51.624 476.356 51.472 475.956 51.344C475.572 51.216 475.1 51.072 474.54 50.912C473.612 50.608 472.836 50.312 472.212 50.024C471.588 49.736 471.116 49.376 470.796 48.944C470.492 48.496 470.34 47.928 470.34 47.24C470.34 46.408 470.548 45.696 470.964 45.104C471.396 44.496 471.988 44.024 472.74 43.688C473.508 43.352 474.404 43.184 475.428 43.184C476.324 43.184 477.172 43.328 477.972 43.616C478.772 43.888 479.5 44.336 480.156 44.96L478.86 47C478.22 46.504 477.612 46.144 477.036 45.92C476.46 45.68 475.876 45.56 475.284 45.56C474.948 45.56 474.628 45.6 474.324 45.68C474.036 45.76 473.796 45.896 473.604 46.088C473.428 46.264 473.34 46.52 473.34 46.856C473.34 47.16 473.42 47.4 473.58 47.576C473.756 47.736 474.012 47.88 474.348 48.008C474.7 48.136 475.124 48.28 475.62 48.44C476.628 48.728 477.476 49.024 478.164 49.328C478.868 49.632 479.396 50.008 479.748 50.456C480.1 50.888 480.276 51.488 480.276 52.256C480.276 53.504 479.82 54.48 478.908 55.184C477.996 55.888 476.772 56.24 475.236 56.24Z" fill="#EB8906"/>
<path d="M198.175 122.277C198.175 125.058 197.457 127.398 196.02 129.299C194.583 131.153 192.636 132.567 190.179 133.54C187.769 134.513 185.127 135 182.254 135H158.406V85.6366H184.826C187.144 85.6366 189.137 86.2623 190.805 87.5138C192.52 88.7189 193.818 90.2948 194.699 92.2416C195.626 94.1419 196.089 96.135 196.089 98.2208C196.089 100.585 195.487 102.833 194.282 104.965C193.076 107.097 191.315 108.673 188.998 109.693C191.825 110.527 194.05 112.033 195.672 114.212C197.341 116.39 198.175 119.079 198.175 122.277ZM188.511 120.469C188.511 119.218 188.256 118.105 187.746 117.132C187.236 116.112 186.541 115.324 185.66 114.768C184.826 114.165 183.853 113.864 182.74 113.864H168.001V126.865H182.254C183.412 126.865 184.455 126.587 185.382 126.031C186.356 125.429 187.12 124.641 187.677 123.667C188.233 122.694 188.511 121.628 188.511 120.469ZM168.001 93.8407V106.286H180.793C181.86 106.286 182.833 106.031 183.714 105.521C184.594 105.011 185.29 104.293 185.799 103.366C186.356 102.439 186.634 101.326 186.634 100.028C186.634 98.777 186.379 97.6878 185.869 96.7607C185.405 95.8337 184.756 95.1153 183.922 94.6054C183.134 94.0956 182.23 93.8407 181.211 93.8407H168.001ZM226.798 106.633C223.971 106.633 221.444 107.19 219.22 108.302C216.995 109.368 215.396 110.921 214.422 112.96V135H205.106V98.5684H213.658V106.355C214.955 103.852 216.601 101.882 218.594 100.446C220.587 99.0087 222.696 98.2208 224.921 98.0817C225.431 98.0817 225.825 98.0817 226.103 98.0817C226.381 98.0817 226.613 98.1049 226.798 98.1513V106.633ZM229.634 124.223C229.634 121.86 230.283 119.797 231.581 118.036C232.925 116.228 234.779 114.837 237.143 113.864C239.507 112.891 242.218 112.404 245.277 112.404C246.807 112.404 248.359 112.52 249.935 112.752C251.511 112.983 252.879 113.354 254.037 113.864V111.917C254.037 109.6 253.342 107.815 251.952 106.564C250.607 105.312 248.591 104.687 245.903 104.687C243.91 104.687 242.009 105.034 240.202 105.73C238.394 106.425 236.494 107.445 234.501 108.789L231.511 102.67C233.921 101.095 236.378 99.9126 238.881 99.1246C241.43 98.3367 244.095 97.9427 246.876 97.9427C252.068 97.9427 256.1 99.2405 258.974 101.836C261.894 104.432 263.354 108.14 263.354 112.96V124.571C263.354 125.544 263.516 126.24 263.841 126.657C264.211 127.074 264.791 127.329 265.579 127.422V135C264.744 135.139 263.98 135.255 263.284 135.348C262.635 135.44 262.079 135.487 261.616 135.487C259.762 135.487 258.348 135.07 257.375 134.235C256.448 133.401 255.868 132.381 255.637 131.176L255.428 129.299C253.852 131.338 251.882 132.914 249.518 134.027C247.154 135.139 244.744 135.695 242.288 135.695C239.877 135.695 237.699 135.209 235.752 134.235C233.852 133.216 232.345 131.848 231.233 130.133C230.167 128.372 229.634 126.402 229.634 124.223ZM252.299 126.101C252.809 125.544 253.226 124.988 253.551 124.432C253.875 123.876 254.037 123.366 254.037 122.902V119.218C252.925 118.754 251.72 118.406 250.422 118.175C249.124 117.897 247.896 117.758 246.737 117.758C244.327 117.758 242.334 118.291 240.758 119.357C239.228 120.376 238.464 121.744 238.464 123.459C238.464 124.386 238.719 125.266 239.228 126.101C239.738 126.935 240.48 127.607 241.453 128.117C242.427 128.627 243.585 128.882 244.93 128.882C246.32 128.882 247.687 128.627 249.032 128.117C250.376 127.561 251.465 126.889 252.299 126.101ZM272.407 135V98.5684H281.724V135H272.407ZM272.407 93.493V84.2461H281.724V93.493H272.407ZM324.335 135H315.019V114.559C315.019 111.639 314.509 109.507 313.489 108.163C312.469 106.819 311.056 106.147 309.248 106.147C307.997 106.147 306.722 106.471 305.424 107.12C304.173 107.769 303.037 108.673 302.017 109.832C300.998 110.944 300.256 112.242 299.793 113.725V135H290.476V98.5684H298.889V105.312C299.816 103.737 300.998 102.416 302.435 101.349C303.871 100.237 305.517 99.4027 307.371 98.8465C309.271 98.244 311.264 97.9427 313.35 97.9427C315.621 97.9427 317.475 98.3598 318.912 99.1941C320.395 99.9821 321.508 101.071 322.249 102.462C323.037 103.806 323.57 105.336 323.849 107.051C324.173 108.766 324.335 110.504 324.335 112.265V135ZM346.202 135.695C343.097 135.695 340.13 135.185 337.303 134.166C334.475 133.146 332.042 131.64 330.003 129.647L333.34 123.598C335.518 125.359 337.65 126.657 339.736 127.491C341.868 128.326 343.908 128.743 345.855 128.743C347.662 128.743 349.099 128.418 350.165 127.769C351.278 127.12 351.834 126.147 351.834 124.849C351.834 123.969 351.533 123.296 350.93 122.833C350.327 122.323 349.447 121.883 348.288 121.512C347.176 121.141 345.808 120.724 344.186 120.261C341.498 119.38 339.25 118.522 337.442 117.688C335.634 116.854 334.267 115.811 333.34 114.559C332.459 113.262 332.019 111.616 332.019 109.623C332.019 107.213 332.621 105.15 333.827 103.435C335.078 101.674 336.793 100.307 338.971 99.3332C341.196 98.3598 343.792 97.8732 346.758 97.8732C349.354 97.8732 351.811 98.2903 354.128 99.1246C356.446 99.9126 358.555 101.21 360.455 103.018L356.701 108.928C354.847 107.491 353.085 106.448 351.417 105.799C349.748 105.104 348.056 104.756 346.341 104.756C345.368 104.756 344.441 104.872 343.56 105.104C342.726 105.336 342.031 105.73 341.474 106.286C340.965 106.796 340.71 107.537 340.71 108.511C340.71 109.391 340.941 110.087 341.405 110.596C341.915 111.06 342.656 111.477 343.63 111.848C344.649 112.219 345.878 112.636 347.315 113.099C350.235 113.934 352.691 114.791 354.684 115.672C356.724 116.552 358.253 117.642 359.273 118.94C360.293 120.191 360.803 121.929 360.803 124.154C360.803 127.769 359.482 130.597 356.84 132.636C354.198 134.676 350.652 135.695 346.202 135.695ZM389.114 133.123C388.326 133.447 387.376 133.818 386.264 134.235C385.151 134.652 383.946 134.977 382.648 135.209C381.397 135.487 380.122 135.626 378.825 135.626C377.11 135.626 375.534 135.324 374.097 134.722C372.66 134.119 371.501 133.169 370.62 131.871C369.786 130.527 369.369 128.789 369.369 126.657V105.73H364.572V98.5684H369.369V86.749H378.685V98.5684H386.333V105.73H378.685V123.528C378.732 124.78 379.079 125.684 379.728 126.24C380.377 126.796 381.188 127.074 382.162 127.074C383.135 127.074 384.085 126.912 385.012 126.587C385.939 126.263 386.681 125.985 387.237 125.753L389.114 133.123ZM410.732 135.695C407.766 135.695 405.1 135.209 402.737 134.235C400.373 133.216 398.356 131.825 396.688 130.064C395.065 128.302 393.814 126.286 392.933 124.015C392.053 121.744 391.612 119.357 391.612 116.854C391.612 114.304 392.053 111.894 392.933 109.623C393.814 107.352 395.065 105.336 396.688 103.574C398.356 101.813 400.373 100.446 402.737 99.4722C405.1 98.4525 407.766 97.9427 410.732 97.9427C413.698 97.9427 416.34 98.4525 418.658 99.4722C421.022 100.446 423.038 101.813 424.707 103.574C426.375 105.336 427.627 107.352 428.461 109.623C429.342 111.894 429.782 114.304 429.782 116.854C429.782 119.357 429.342 121.744 428.461 124.015C427.627 126.286 426.375 128.302 424.707 130.064C423.084 131.825 421.091 133.216 418.727 134.235C416.364 135.209 413.698 135.695 410.732 135.695ZM401.207 116.854C401.207 118.986 401.624 120.886 402.458 122.555C403.293 124.177 404.428 125.452 405.865 126.379C407.302 127.306 408.924 127.769 410.732 127.769C412.493 127.769 414.092 127.306 415.529 126.379C416.966 125.405 418.102 124.108 418.936 122.485C419.817 120.817 420.257 118.916 420.257 116.784C420.257 114.698 419.817 112.821 418.936 111.153C418.102 109.484 416.966 108.186 415.529 107.259C414.092 106.332 412.493 105.869 410.732 105.869C408.924 105.869 407.302 106.355 405.865 107.329C404.428 108.256 403.293 109.554 402.458 111.222C401.624 112.844 401.207 114.722 401.207 116.854ZM458.11 106.633C455.283 106.633 452.757 107.19 450.532 108.302C448.307 109.368 446.708 110.921 445.735 112.96V135H436.418V98.5684H444.97V106.355C446.268 103.852 447.913 101.882 449.906 100.446C451.899 99.0087 454.008 98.2208 456.233 98.0817C456.743 98.0817 457.137 98.0817 457.415 98.0817C457.693 98.0817 457.925 98.1049 458.11 98.1513V106.633ZM520.247 135H510.93V114.559C510.93 111.686 510.42 109.577 509.401 108.233C508.427 106.842 507.06 106.147 505.299 106.147C503.491 106.147 501.753 106.865 500.084 108.302C498.462 109.693 497.303 111.523 496.608 113.795V135H487.291V114.559C487.291 111.639 486.782 109.507 485.762 108.163C484.789 106.819 483.421 106.147 481.66 106.147C479.852 106.147 478.114 106.842 476.445 108.233C474.823 109.623 473.664 111.454 472.969 113.725V135H463.653V98.5684H472.065V105.312C473.456 102.949 475.31 101.141 477.627 99.8894C479.945 98.5916 482.61 97.9427 485.623 97.9427C488.636 97.9427 490.976 98.6843 492.645 100.168C494.36 101.651 495.449 103.482 495.913 105.66C497.396 103.157 499.273 101.257 501.544 99.9589C503.862 98.6148 506.457 97.9427 509.331 97.9427C511.602 97.9427 513.433 98.3598 514.824 99.1941C516.261 99.9821 517.373 101.071 518.161 102.462C518.949 103.806 519.482 105.336 519.76 107.051C520.085 108.766 520.247 110.504 520.247 112.265V135ZM528.706 135V98.5684H538.022V135H528.706ZM528.706 93.493V84.2461H538.022V93.493H528.706ZM580.633 135H571.317V114.559C571.317 111.639 570.807 109.507 569.787 108.163C568.768 106.819 567.354 106.147 565.546 106.147C564.295 106.147 563.02 106.471 561.722 107.12C560.471 107.769 559.335 108.673 558.315 109.832C557.296 110.944 556.554 112.242 556.091 113.725V135H546.774V98.5684H555.187V105.312C556.114 103.737 557.296 102.416 558.733 101.349C560.169 100.237 561.815 99.4027 563.669 98.8465C565.569 98.244 567.562 97.9427 569.648 97.9427C571.919 97.9427 573.773 98.3598 575.21 99.1941C576.693 99.9821 577.806 101.071 578.548 102.462C579.335 103.806 579.869 105.336 580.147 107.051C580.471 108.766 580.633 110.504 580.633 112.265V135ZM603.335 135.209C600.924 135.209 598.7 134.745 596.66 133.818C594.667 132.845 592.929 131.501 591.446 129.786C590.009 128.071 588.896 126.101 588.108 123.876C587.32 121.651 586.926 119.287 586.926 116.784C586.926 114.142 587.344 111.686 588.178 109.414C589.012 107.143 590.171 105.15 591.654 103.435C593.184 101.674 594.968 100.33 597.008 99.4027C599.094 98.4294 601.388 97.9427 603.891 97.9427C606.718 97.9427 609.198 98.5916 611.33 99.8894C613.462 101.141 615.224 102.833 616.614 104.965V98.5684H624.749V133.262C624.749 136.877 623.868 139.96 622.107 142.509C620.392 145.104 618.005 147.074 614.945 148.419C611.886 149.809 608.41 150.504 604.517 150.504C600.577 150.504 597.239 149.832 594.505 148.488C591.77 147.19 589.429 145.336 587.483 142.926L592.558 137.99C593.949 139.705 595.687 141.049 597.773 142.022C599.905 142.995 602.153 143.482 604.517 143.482C606.51 143.482 608.317 143.111 609.94 142.37C611.608 141.674 612.929 140.562 613.903 139.033C614.922 137.549 615.432 135.626 615.432 133.262V128.673C614.227 130.759 612.512 132.381 610.287 133.54C608.109 134.652 605.791 135.209 603.335 135.209ZM606.463 127.769C607.483 127.769 608.456 127.607 609.383 127.283C610.31 126.958 611.168 126.518 611.956 125.962C612.744 125.405 613.439 124.757 614.042 124.015C614.644 123.227 615.108 122.439 615.432 121.651V112.96C614.876 111.523 614.088 110.272 613.068 109.206C612.095 108.14 610.982 107.329 609.731 106.772C608.526 106.17 607.251 105.869 605.907 105.869C604.47 105.869 603.172 106.17 602.014 106.772C600.855 107.375 599.858 108.233 599.024 109.345C598.19 110.411 597.541 111.616 597.077 112.96C596.66 114.258 596.452 115.625 596.452 117.062C596.452 118.546 596.706 119.936 597.216 121.234C597.726 122.532 598.421 123.667 599.302 124.641C600.229 125.614 601.295 126.379 602.5 126.935C603.752 127.491 605.073 127.769 606.463 127.769Z" fill="#272727"/>
</svg>
