<svg width="162" height="165" viewBox="0 0 162 165" fill="none" xmlns="http://www.w3.org/2000/svg">
<path d="M5.79018 73.9976C4.85098 73.7955 4.00565 73.4386 3.25421 72.9269C2.50554 72.4024 1.88609 71.7778 1.39586 71.0531C0.905637 70.3284 0.566216 69.5284 0.3776 68.6532C0.191751 67.7652 0.197098 66.8644 0.393639 65.9509C0.59018 65.0375 0.954386 64.2206 1.48626 63.5005C2.01813 62.7803 2.65651 62.1907 3.40141 61.7318C4.14631 61.2728 4.96645 60.9647 5.86184 60.8073C6.75999 60.6371 7.67867 60.653 8.61788 60.8551C9.56995 61.0599 10.4268 61.426 11.1883 61.9533C11.9526 62.4678 12.5863 63.0887 13.0894 63.8162C13.5796 64.5409 13.919 65.3408 14.1077 66.216C14.2963 67.0912 14.2923 67.9856 14.0958 68.899C13.8992 69.8125 13.5336 70.6358 12.999 71.3688C12.4671 72.089 11.8287 72.6786 11.0838 73.1375C10.3261 73.5937 9.49169 73.9055 8.58067 74.073C7.67242 74.2275 6.74226 74.2024 5.79018 73.9976ZM6.28746 71.2171C7.2138 71.4164 8.09747 71.5325 8.93847 71.5653C9.76937 71.5826 10.514 71.5005 11.1722 71.319C11.8305 71.1376 12.3845 70.8462 12.8343 70.4449C13.274 70.028 13.5658 69.485 13.7098 68.816C13.8537 68.147 13.8097 67.5385 13.5776 66.9904C13.3326 66.4397 12.9474 65.9462 12.4221 65.5101C11.8967 65.074 11.2504 64.6994 10.4831 64.3862C9.70302 64.0703 8.8498 63.8127 7.92346 63.6134C7.04858 63.4251 6.21637 63.3201 5.42684 63.2983C4.62444 63.2737 3.90054 63.3536 3.25514 63.5378C2.60974 63.722 2.06857 64.0161 1.63164 64.4202C1.1947 64.8243 0.90426 65.3608 0.760315 66.0298C0.61637 66.6988 0.659058 67.3138 0.888379 67.8747C1.12047 68.4227 1.49278 68.9134 2.0053 69.3467C2.51783 69.7801 3.14346 70.157 3.88219 70.4775C4.61083 70.7823 5.41258 71.0288 6.28746 71.2171Z" fill="#2B2B2B"/>
<path d="M5.21815 50.3404L6.4835 47.8391L8.22736 48.7213C7.19009 47.7689 7.05759 46.5293 7.82987 45.0027C8.09719 44.4743 8.4318 44.0315 8.83369 43.6744C9.24152 43.3055 9.68714 43.0368 10.1705 42.8684C10.6539 42.7 11.1574 42.6376 11.6811 42.6813C12.1989 42.7073 12.7102 42.848 13.2152 43.1034C13.8493 43.4242 14.3474 43.8827 14.7096 44.4788C15.0717 45.0749 15.298 45.7646 15.3885 46.5478C15.4732 47.3133 15.4251 48.1518 15.2442 49.0632C15.0576 49.9569 14.7443 50.8677 14.3045 51.7955L17.9507 53.6401C18.2208 53.7767 18.3965 53.9541 18.4779 54.1723C18.5593 54.3904 18.5406 54.6169 18.4218 54.8518L17.5485 56.578L5.21815 50.3404ZM13.9874 51.6352C14.2075 51.1418 14.36 50.6216 14.445 50.0747C14.5182 49.5218 14.4972 48.9802 14.3819 48.45C14.255 47.9138 14.0219 47.4125 13.6827 46.9459C13.3318 46.4734 12.8334 46.0738 12.1875 45.7471C11.1894 45.2421 10.3194 45.0085 9.57766 45.0462C8.83011 45.0663 8.31079 45.364 8.0197 45.9394C7.69891 46.5735 7.67238 47.2091 7.94013 47.8459C8.21382 48.4711 8.73232 48.9767 9.49562 49.3629L13.9874 51.6352Z" fill="#2B2B2B"/>
<path d="M14.4543 34.1264L20.0903 27.2857L21.7662 28.6664C21.2612 28.7619 20.7189 28.9545 20.1391 29.2442C19.6485 29.4879 19.0894 29.8458 18.4618 30.3177C17.8426 30.7795 17.1932 31.4125 16.5136 32.2167L22.5012 37.1498C22.4379 36.9783 22.3752 36.7646 22.3131 36.5088C22.2409 36.2447 22.1997 35.9635 22.1896 35.6653C22.1795 35.3671 22.2157 35.0645 22.2982 34.7573C22.3808 34.4502 22.535 34.1595 22.7609 33.8853C22.945 33.6618 23.1363 33.5125 23.3347 33.4372C23.5331 33.362 23.7115 33.3214 23.8699 33.3154C24.0366 33.2993 24.1731 33.3095 24.2795 33.346C24.3841 33.3639 24.4313 33.3687 24.4211 33.3603L25.4571 34.2139C25.2564 34.1678 25.0499 34.1597 24.8378 34.1896C24.6627 34.2158 24.4726 34.2809 24.2676 34.3849C24.0608 34.4703 23.8612 34.6298 23.6688 34.8634C23.4512 35.1275 23.2901 35.3955 23.1854 35.6673C23.0707 35.9308 22.992 36.1815 22.9495 36.4193C22.9154 36.647 22.9082 36.8627 22.9279 37.0665C22.9374 37.2619 22.9577 37.4236 22.9887 37.5515L26.5996 40.5264C27.2338 39.7359 27.7183 38.9926 28.0531 38.2965C28.3962 37.5902 28.6446 36.9679 28.7983 36.4295C28.9718 35.8051 29.0654 35.2258 29.0793 34.6915L30.7552 36.0723L25.1192 42.9131L14.4543 34.1264Z" fill="#2B2B2B"/>
<path d="M29.0513 22.4143L32.06 26.2766C32.4441 26.778 32.8823 27.1552 33.3745 27.4081C33.8587 27.6506 34.3385 27.8549 34.814 28.0211C35.2895 28.1874 35.7361 28.3591 36.1538 28.5365C36.5739 28.6954 36.9161 28.9472 37.1802 29.2919C37.3163 29.4695 37.3653 29.6309 37.3273 29.7761C37.2917 29.9028 37.2374 29.9941 37.1643 30.0502L35.3779 31.4188L28.219 22.107L26.9272 21.6543L27.4359 20.0461C27.4843 19.893 27.5765 19.7644 27.7123 19.6603C27.8376 19.5643 27.9818 19.5036 28.1447 19.4782C28.3077 19.4528 28.4697 19.4696 28.6309 19.5285L41.473 23.9888L38.0801 19.6252C37.696 19.1238 37.2618 18.7518 36.7776 18.5093C36.2854 18.2564 35.8016 18.0468 35.3261 17.8806C34.8506 17.7144 34.4028 17.5518 33.9826 17.3929C33.5649 17.2156 33.224 16.9546 32.9599 16.6098C32.8238 16.4322 32.7736 16.2801 32.8091 16.1534C32.8471 16.0082 32.9027 15.9076 32.9758 15.8516L34.7622 14.483L43.1973 25.4281L41.4579 26.7607L29.0513 22.4143Z" fill="#2B2B2B"/>
<path d="M59.1347 3.70702L58.8093 3.78931C58.2097 3.941 57.7012 4.15786 57.2839 4.43991C56.876 4.70596 56.5353 4.99577 56.2617 5.30933C56.0008 5.61967 55.8022 5.93462 55.6658 6.25418C55.5295 6.57375 55.4377 6.85488 55.3905 7.0976L54.7176 4.43746L66.0471 1.57161L66.72 4.23174C66.563 4.04066 66.3486 3.83698 66.0767 3.62069C65.8048 3.4044 65.4739 3.22339 65.0841 3.07764C64.7071 2.92867 64.2695 2.83573 63.7715 2.79881C63.283 2.74591 62.7389 2.7953 62.1393 2.94699L61.8522 3.0196L64.9166 15.1337C64.9876 15.4144 64.9675 15.657 64.8564 15.8616C64.758 16.063 64.5812 16.1959 64.326 16.2605L62.4314 16.7397L59.1347 3.70702Z" fill="#2B2B2B"/>
<path d="M75.4648 7.04982C75.4868 6.08937 75.6785 5.19204 76.0399 4.35784C76.4144 3.52394 76.9115 2.79815 77.5311 2.18048C78.1508 1.56282 78.8727 1.07913 79.6969 0.729417C80.5342 0.380007 81.4199 0.215999 82.3541 0.237391C83.2882 0.258783 84.1589 0.463015 84.9662 0.850087C85.7735 1.23716 86.4725 1.75339 87.0633 2.39877C87.654 3.04416 88.1108 3.79179 88.4336 4.64166C88.7695 5.49184 88.9265 6.39715 88.9045 7.35759C88.8822 8.3312 88.6837 9.24153 88.3089 10.0886C87.9472 10.936 87.4564 11.675 86.8364 12.3059C86.2167 12.9235 85.4948 13.4072 84.6706 13.7569C83.8465 14.1066 82.9673 14.2708 82.0332 14.2494C81.0991 14.228 80.2218 14.0236 79.4013 13.6363C78.594 13.2492 77.895 12.733 77.3043 12.0876C76.7138 11.429 76.2508 10.6681 75.9151 9.80477C75.5926 8.94174 75.4425 8.02342 75.4648 7.04982ZM78.2892 7.01577C78.2675 7.96306 78.3196 8.8528 78.4453 9.685C78.5845 10.5043 78.8051 11.2202 79.107 11.8327C79.4089 12.4451 79.7991 12.9345 80.2778 13.3009C80.7699 13.6544 81.3581 13.839 82.0422 13.8547C82.7264 13.8704 83.3158 13.7127 83.8104 13.3818C84.3054 13.0377 84.7176 12.5667 85.0473 11.9687C85.3769 11.3707 85.6234 10.6655 85.7868 9.85312C85.9505 9.02756 86.0432 8.14113 86.0649 7.19384C86.0854 6.29917 86.0322 5.46206 85.9052 4.68249C85.7786 3.88977 85.5641 3.19376 85.2619 2.59447C84.9597 1.99518 84.5691 1.51893 84.0902 1.1657C83.6112 0.812475 83.0296 0.628028 82.3455 0.61236C81.6613 0.596692 81.0654 0.754174 80.5576 1.0848C80.0629 1.41573 79.6509 1.87361 79.3216 2.45844C78.9923 3.04326 78.7397 3.72857 78.5637 4.51436C78.4012 5.2873 78.3097 6.12111 78.2892 7.01577Z" fill="#2B2B2B"/>
<path d="M115.437 23.3524C115.171 23.2092 115 23.0128 114.925 22.7633C114.856 22.5022 114.845 22.2575 114.893 22.0293L115.815 17.1016L111.386 21.1757L109.873 20.3629C109.606 20.2196 109.435 20.0233 109.36 19.7738C109.291 19.5127 109.275 19.2649 109.311 19.0305L111.804 5.71431L114.343 7.07828L111.881 20.254L115.902 16.5654L117.369 8.70383L119.908 10.0678L119.26 13.4844C119.544 13.2337 119.855 12.9749 120.192 12.7081C120.548 12.4359 120.931 12.2234 121.342 12.0706C121.77 11.9124 122.229 11.8375 122.717 11.846C123.217 11.8606 123.763 12.0268 124.354 12.3444C124.829 12.5998 125.227 12.9029 125.546 13.2538C125.872 13.5931 126.108 13.9592 126.256 14.3521C126.415 14.7513 126.476 15.1652 126.44 15.594C126.422 16.0174 126.304 16.432 126.086 16.8377C125.88 17.2203 125.616 17.5865 125.294 17.9362C124.972 18.2859 124.557 18.6682 124.05 19.0832C123.561 19.4927 122.956 19.9519 122.235 20.4607C121.519 20.9578 120.663 21.5509 119.665 22.24L116.916 24.1465L115.437 23.3524ZM122.43 13.2153C122.117 13.0472 121.813 12.9588 121.519 12.9501C121.225 12.9415 120.935 12.9801 120.65 13.066C120.376 13.158 120.11 13.2915 119.852 13.4665C119.612 13.6361 119.388 13.815 119.183 14.0033L117.443 23.3318L119.132 22.0654C120.144 21.2943 120.971 20.5737 121.615 19.9037C122.277 19.2284 122.785 18.5603 123.14 17.8995C123.333 17.5401 123.48 17.1411 123.581 16.7024C123.689 16.2522 123.725 15.8087 123.691 15.372C123.663 14.9237 123.549 14.5111 123.348 14.1343C123.153 13.7459 122.847 13.4395 122.43 13.2153Z" fill="#2B2B2B"/>
<path d="M130.474 25.1C131.168 24.435 131.937 23.9346 132.782 23.5986C133.635 23.2721 134.5 23.1088 135.375 23.1085C136.25 23.1082 137.103 23.2751 137.933 23.6089C138.773 23.9523 139.516 24.4612 140.163 25.1357C140.81 25.8101 141.282 26.5693 141.581 27.4132C141.88 28.2572 142.011 29.1163 141.974 29.9904C141.937 30.8646 141.733 31.7166 141.362 32.5465C141 33.3859 140.472 34.1381 139.779 34.803C139.076 35.477 138.293 35.9819 137.429 36.3174C136.575 36.6625 135.706 36.8397 134.821 36.8491C133.946 36.8494 133.094 36.6826 132.263 36.3487C131.432 36.0148 130.693 35.5106 130.047 34.8362C129.4 34.1618 128.923 33.3979 128.615 32.5444C128.316 31.7004 128.185 30.8414 128.222 29.9672C128.269 29.0839 128.478 28.2181 128.849 27.3695C129.23 26.5305 129.771 25.774 130.474 25.1ZM132.499 27.0691C131.815 27.725 131.224 28.392 130.726 29.0703C130.247 29.7491 129.898 30.4119 129.679 31.0589C129.461 31.7058 129.392 32.328 129.473 32.9254C129.572 33.5232 129.858 34.069 130.332 34.563C130.805 35.0569 131.334 35.3612 131.918 35.4758C132.512 35.5814 133.136 35.5386 133.792 35.3476C134.447 35.1566 135.12 34.8309 135.809 34.3707C136.507 33.9013 137.199 33.3388 137.883 32.683C138.528 32.0636 139.082 31.4329 139.542 30.7911C140.011 30.1401 140.351 29.4956 140.56 28.8578C140.768 28.2199 140.828 27.6069 140.738 27.0186C140.648 26.4303 140.366 25.8892 139.892 25.3952C139.419 24.9013 138.885 24.5923 138.292 24.4681C137.708 24.3535 137.093 24.3871 136.447 24.569C135.801 24.751 135.138 25.0582 134.459 25.4907C133.799 25.9236 133.145 26.4498 132.499 27.0691Z" fill="#2B2B2B"/>
<path d="M150.457 37.937L151.803 40.3957L150.47 41.1257C151.115 41.0721 151.665 41.2136 152.12 41.5501C152.58 41.8981 152.965 42.3549 153.275 42.9205C153.597 43.5092 153.798 44.0819 153.878 44.6384C153.976 45.2002 153.957 45.728 153.822 46.2218C153.705 46.7209 153.481 47.1739 153.148 47.5809C152.834 47.9931 152.417 48.3414 151.898 48.6258C151.159 49.0303 150.386 49.168 149.581 49.039C148.793 48.9152 148.008 48.5646 147.227 47.9871L144.101 53.0066C143.963 53.2473 143.761 53.3579 143.495 53.3384C143.247 53.324 143.057 53.1957 142.924 52.9533L142.09 51.4295L145.382 46.1388C145.191 45.8985 145.004 45.6404 144.823 45.3645C144.642 45.0885 144.47 44.8005 144.305 44.5004L140.531 46.5669C140.265 46.7122 140.019 46.7567 139.793 46.7004C139.568 46.644 139.391 46.5004 139.265 46.2695L138.336 44.5726L150.457 37.937ZM144.617 44.3297C144.955 44.8649 145.346 45.3185 145.79 45.6907C146.233 46.0629 146.706 46.3368 147.207 46.5125C147.72 46.6818 148.244 46.7477 148.778 46.7101C149.331 46.6778 149.867 46.5194 150.386 46.235C151.425 45.6662 152.097 45.0581 152.403 44.4107C152.72 43.7569 152.727 43.1529 152.424 42.5988C152.316 42.4026 152.162 42.2169 151.961 42.0419C151.761 41.8668 151.514 41.7316 151.222 41.6365C150.948 41.5466 150.628 41.5114 150.264 41.5309C149.906 41.5619 149.513 41.6796 149.084 41.884L144.617 44.3297Z" fill="#2B2B2B"/>
<path d="M159.174 55.8619L159.887 58.5527L153.246 60.3103L161.27 63.7816L160.416 65.723C160.342 65.9059 160.21 66.0227 160.019 66.0732C159.79 66.1338 159.583 66.0999 159.4 65.9715C159.216 65.8432 159.038 65.6589 158.865 65.4187C158.709 65.1878 158.541 64.9124 158.361 64.5925C158.197 64.2819 158.012 63.97 157.807 63.6568C157.605 63.3563 157.373 63.0706 157.11 62.7997C156.864 62.5381 156.571 62.3299 156.23 62.175L155.927 62.0307L149.376 68.9918C149.184 69.1924 148.971 69.2624 148.738 69.2017C148.504 69.1411 148.353 68.9836 148.286 68.7291L147.841 67.0498L153.542 60.967L152.501 60.5073L147.463 61.8406C147.171 61.9181 146.921 61.9023 146.716 61.7934C146.513 61.6973 146.378 61.522 146.311 61.2675L145.816 59.3973L159.174 55.8619Z" fill="#2B2B2B"/>
<path d="M150.834 87.6254C151.437 87.6843 151.84 87.8889 152.044 88.2394C152.261 88.5912 152.346 89.0028 152.3 89.4744C152.255 89.9328 152.092 90.3136 151.812 90.6167C151.544 90.9211 151.109 91.0439 150.506 90.985C149.93 90.9287 149.527 90.724 149.297 90.371C149.08 90.0192 148.994 89.6141 149.039 89.1557C149.085 88.6842 149.248 88.2968 149.529 87.9937C149.823 87.6919 150.258 87.5691 150.834 87.6254Z" fill="#2B2B2B"/>
<path d="M142.334 113.16C142.767 112.287 143.309 111.565 143.961 110.992C144.612 110.419 145.338 110.008 146.138 109.758C146.943 109.526 147.799 109.459 148.706 109.556C149.625 109.659 150.561 109.948 151.516 110.422C152.506 110.913 153.32 111.493 153.958 112.163C154.59 112.843 155.045 113.569 155.324 114.339C155.609 115.127 155.72 115.939 155.658 116.775C155.596 117.611 155.363 118.435 154.959 119.249C154.07 121.04 152.77 122.18 151.058 122.668L149.791 121.047C149.767 121.006 149.75 120.968 149.738 120.933C149.702 120.827 149.708 120.727 149.755 120.633C149.907 120.326 150.1 120.128 150.335 120.039C150.577 119.968 150.841 119.938 151.13 119.949C151.412 119.971 151.707 120.015 152.013 120.078C152.331 120.148 152.637 120.183 152.931 120.182C153.226 120.181 153.502 120.112 153.761 119.976C154.025 119.858 154.248 119.616 154.429 119.25C154.675 118.755 154.744 118.216 154.636 117.634C154.523 117.063 154.271 116.49 153.881 115.915C153.502 115.345 153.009 114.799 152.402 114.277C151.788 113.767 151.104 113.325 150.349 112.95C149.477 112.517 148.635 112.231 147.822 112.093C147.004 111.966 146.262 111.95 145.597 112.046C144.927 112.154 144.347 112.359 143.86 112.661C143.378 112.98 143.026 113.364 142.804 113.812C142.628 114.165 142.565 114.471 142.612 114.73C142.672 114.995 142.788 115.236 142.959 115.453C143.124 115.682 143.316 115.888 143.535 116.069C143.765 116.257 143.971 116.448 144.154 116.641C144.331 116.847 144.45 117.067 144.509 117.302C144.581 117.544 144.54 117.817 144.388 118.124C144.359 118.183 144.324 118.224 144.283 118.248C144.248 118.289 144.212 118.316 144.177 118.327C144.124 118.345 144.077 118.351 144.036 118.346L141.979 118.316C141.321 116.682 141.439 114.963 142.334 113.16Z" fill="#2B2B2B"/>
<path d="M142.216 127.545C142.931 128.187 143.488 128.916 143.886 129.733C144.276 130.56 144.504 131.41 144.57 132.282C144.635 133.155 144.533 134.018 144.262 134.871C143.983 135.734 143.531 136.514 142.907 137.209C142.283 137.904 141.562 138.433 140.742 138.794C139.923 139.155 139.076 139.35 138.202 139.379C137.328 139.408 136.463 139.268 135.607 138.96C134.743 138.662 133.953 138.192 133.238 137.551C132.513 136.9 131.951 136.157 131.552 135.322C131.144 134.496 130.902 133.642 130.826 132.761C130.76 131.888 130.863 131.025 131.133 130.172C131.404 129.319 131.851 128.544 132.475 127.849C133.099 127.153 133.825 126.62 134.653 126.249C135.472 125.888 136.319 125.693 137.194 125.664C138.078 125.644 138.957 125.788 139.831 126.094C140.696 126.411 141.491 126.895 142.216 127.545ZM140.404 129.712C139.699 129.079 138.99 128.54 138.276 128.094C137.563 127.666 136.876 127.368 136.214 127.199C135.553 127.03 134.927 127.008 134.338 127.133C133.749 127.277 133.226 127.603 132.769 128.112C132.312 128.622 132.048 129.172 131.978 129.763C131.917 130.363 132.007 130.982 132.246 131.622C132.486 132.261 132.861 132.907 133.372 133.56C133.892 134.221 134.505 134.868 135.21 135.501C135.876 136.099 136.547 136.603 137.221 137.014C137.906 137.433 138.574 137.723 139.225 137.884C139.877 138.044 140.493 138.057 141.073 137.923C141.653 137.789 142.171 137.468 142.628 136.958C143.085 136.449 143.353 135.894 143.433 135.293C143.503 134.702 143.423 134.092 143.194 133.461C142.964 132.83 142.608 132.193 142.125 131.548C141.644 130.922 141.071 130.31 140.404 129.712Z" fill="#2B2B2B"/>
<path d="M128.336 146.748L125.636 142.664C125.292 142.134 124.884 141.724 124.413 141.433C123.95 141.154 123.487 140.913 123.026 140.71C122.565 140.508 122.133 140.302 121.73 140.092C121.324 139.901 121.002 139.624 120.766 139.26C120.644 139.072 120.607 138.907 120.657 138.765C120.702 138.642 120.763 138.555 120.84 138.505L122.728 137.279L129.141 147.119L130.394 147.671L129.762 149.235C129.702 149.384 129.6 149.505 129.457 149.598C129.324 149.684 129.176 149.733 129.011 149.746C128.847 149.758 128.687 149.729 128.53 149.658L116.074 144.213L119.117 148.827C119.461 149.357 119.865 149.762 120.329 150.041C120.8 150.331 121.266 150.578 121.727 150.78C122.189 150.983 122.622 151.18 123.029 151.371C123.432 151.58 123.751 151.867 123.988 152.231C124.11 152.419 124.148 152.574 124.103 152.698C124.053 152.84 123.99 152.936 123.913 152.986L122.026 154.212L114.466 142.644L116.304 141.451L128.336 146.748Z" fill="#2B2B2B"/>
<path d="M109.262 159.615L109.58 159.507C110.165 159.309 110.655 159.053 111.049 158.739C111.435 158.441 111.751 158.125 112 157.791C112.235 157.461 112.408 157.132 112.519 156.802C112.63 156.473 112.699 156.186 112.727 155.94L113.608 158.539L102.539 162.289L101.659 159.69C101.83 159.868 102.06 160.054 102.348 160.248C102.636 160.443 102.98 160.597 103.38 160.711C103.768 160.83 104.212 160.888 104.711 160.886C105.202 160.9 105.741 160.808 106.326 160.61L106.607 160.515L102.597 148.68C102.504 148.405 102.505 148.162 102.6 147.949C102.682 147.741 102.848 147.594 103.097 147.51L104.948 146.883L109.262 159.615Z" fill="#2B2B2B"/>
<path d="M88.6984 150.676C89.788 150.6 90.6822 150.84 91.3811 151.398C92.08 151.955 92.4664 152.759 92.5403 153.81C92.5681 154.203 92.5395 154.641 92.4546 155.122C92.3566 155.604 92.2041 156.155 91.9972 156.777C91.778 157.412 91.4988 158.131 91.1595 158.933C90.8202 159.736 90.4165 160.654 89.9485 161.69L88.6908 164.628L86.3278 164.795L81.3087 152.245C81.1965 151.963 81.1869 151.733 81.2799 151.555C81.3597 151.377 81.531 151.28 81.7935 151.261L83.8218 151.118L84.9285 153.91C84.9946 153.536 85.1201 153.164 85.3052 152.795C85.4772 152.427 85.7176 152.093 86.0264 151.794C86.322 151.497 86.6936 151.246 87.1411 151.043C87.5885 150.84 88.1076 150.718 88.6984 150.676ZM88.768 163.475L89.4168 161.727C89.5832 161.28 89.7511 160.761 89.9205 160.168C90.0768 159.577 90.2049 158.961 90.305 158.321C90.406 157.693 90.4601 157.056 90.4673 156.409C90.4614 155.763 90.3791 155.156 90.2203 154.586C89.9979 153.863 89.6229 153.316 89.0954 152.944C88.5679 152.572 87.9432 152.411 87.2212 152.462C86.5385 152.51 86.0343 152.75 85.7085 153.182C85.3836 153.627 85.2274 154.126 85.24 154.68L88.768 163.475Z" fill="#2B2B2B"/>
<path d="M68.3341 149.837C69.2911 150.017 70.1337 150.343 70.8617 150.815C71.5897 151.287 72.1822 151.874 72.6392 152.576C73.0809 153.288 73.3777 154.094 73.5298 154.993C73.6794 155.905 73.6556 156.885 73.4583 157.933C73.2537 159.019 72.9159 159.96 72.4447 160.755C71.9606 161.548 71.3858 162.182 70.72 162.66C70.0389 163.147 69.2877 163.475 68.4662 163.641C67.6447 163.808 66.7877 163.807 65.8953 163.639C63.9295 163.269 62.48 162.327 61.5466 160.812L62.763 159.152C62.7962 159.119 62.8282 159.091 62.8589 159.07C62.9511 159.007 63.0489 158.985 63.1524 159.005C63.4887 159.068 63.7315 159.201 63.8809 159.403C64.0149 159.616 64.1158 159.863 64.1835 160.143C64.2382 160.421 64.2764 160.716 64.298 161.028C64.3171 161.353 64.367 161.657 64.4476 161.94C64.5282 162.223 64.6691 162.471 64.8702 162.683C65.056 162.905 65.3493 163.054 65.7502 163.13C66.2934 163.232 66.8307 163.153 67.362 162.891C67.8804 162.627 68.3638 162.229 68.8121 161.698C69.258 161.179 69.6497 160.557 69.9874 159.83C70.3122 159.101 70.5525 158.323 70.7084 157.495C70.8886 156.538 70.9354 155.65 70.8488 154.83C70.7492 154.008 70.563 153.289 70.2902 152.676C70.0046 152.059 69.6505 151.557 69.228 151.17C68.7901 150.793 68.3254 150.558 67.834 150.465C67.446 150.392 67.1339 150.414 66.8978 150.53C66.6592 150.659 66.4585 150.836 66.2959 151.06C66.1203 151.281 65.9746 151.521 65.8587 151.781C65.7405 152.053 65.613 152.304 65.4762 152.532C65.3264 152.759 65.1464 152.932 64.9361 153.053C64.7234 153.187 64.4489 153.223 64.1126 153.159C64.048 153.147 63.9987 153.125 63.9648 153.091C63.9155 153.069 63.8803 153.042 63.8593 153.011C63.8278 152.965 63.8093 152.922 63.8036 152.88L63.2741 150.892C64.6687 149.816 66.3554 149.464 68.3341 149.837Z" fill="#2B2B2B"/>
<path d="M47.7958 157.525L48.0991 157.668C48.658 157.933 49.1882 158.09 49.6896 158.138C50.1734 158.193 50.6207 158.186 51.0313 158.119C51.4301 158.046 51.7838 157.929 52.0924 157.77C52.4011 157.61 52.6508 157.452 52.8418 157.295L51.6667 159.774L41.1062 154.77L42.2813 152.29C42.2807 152.537 42.3163 152.831 42.3882 153.171C42.4601 153.511 42.6 153.861 42.8077 154.222C43.0036 154.576 43.2818 154.927 43.6423 155.272C43.9852 155.624 44.4362 155.933 44.9951 156.197L45.2627 156.324L50.614 145.032C50.738 144.771 50.908 144.597 51.124 144.51C51.328 144.417 51.549 144.427 51.7869 144.54L53.5529 145.377L47.7958 157.525Z" fill="#2B2B2B"/>
<path d="M28.8885 126.786C29.2419 127.211 29.4227 127.634 29.4307 128.055C29.4387 128.477 29.2707 128.83 28.9267 129.117C28.694 129.31 28.3989 129.47 28.0416 129.596C27.6758 129.712 27.3118 129.809 26.9494 129.888L26.8277 130.297L24.4697 137.958L27.7809 135.179C28.0962 134.899 28.3569 134.606 28.5627 134.298C28.7602 133.979 28.9298 133.658 29.0717 133.335C29.195 133.01 29.3091 132.684 29.4139 132.357C29.5001 132.029 29.5939 131.72 29.6953 131.43C29.7883 131.13 29.9073 130.851 30.0525 130.594C30.1791 130.334 30.3537 130.112 30.5763 129.927C30.7484 129.784 30.9076 129.728 31.0542 129.761C31.1822 129.791 31.2757 129.842 31.3346 129.912L32.7736 131.643L24.1959 138.802L23.595 140.766L21.9955 140.324C21.822 140.28 21.6805 140.193 21.5711 140.061C21.3523 139.798 21.2962 139.494 21.4027 139.148L24.0372 130.461L15.2196 132.146L13.7301 130.355L23.5954 122.151C23.8281 121.957 24.0658 121.862 24.3084 121.866C24.5409 121.878 24.7455 121.99 24.9223 122.202L26.1467 123.675L16.9037 131.362L24.1969 129.943L24.3186 129.534C24.3846 129.325 24.4623 129.089 24.5519 128.827C24.6313 128.572 24.7343 128.315 24.861 128.056C24.9876 127.797 25.142 127.54 25.3242 127.286C25.4879 127.03 25.6861 126.805 25.9189 126.611C26.3843 126.224 26.8883 126.028 27.4309 126.021C27.9735 126.015 28.4593 126.27 28.8885 126.786ZM27.1092 129.37C27.3788 129.283 27.6401 129.185 27.893 129.078C28.1357 128.978 28.3625 128.85 28.5732 128.692C28.7655 128.532 28.8845 128.356 28.9301 128.164C28.9657 127.98 28.9246 127.817 28.8068 127.676C28.6889 127.534 28.5466 127.456 28.3798 127.44C28.213 127.425 28.0436 127.489 27.8716 127.632C27.6979 127.793 27.5604 128.019 27.459 128.309C27.3391 128.597 27.2225 128.951 27.1092 129.37Z" fill="#2B2B2B"/>
<path d="M8.6368 121.979L4.88273 113.95L6.84978 113.03C6.71896 113.527 6.65975 114.1 6.67215 114.748C6.6813 115.296 6.76406 115.954 6.92045 116.724C7.07127 117.481 7.36367 118.34 7.79767 119.299L14.8254 116.013C14.6434 115.997 14.4235 115.961 14.1659 115.907C13.8963 115.859 13.6247 115.776 13.3512 115.656C13.0776 115.537 12.8199 115.375 12.578 115.168C12.3362 114.962 12.14 114.697 11.9895 114.375C11.8669 114.113 11.8142 113.876 11.8316 113.665C11.8489 113.453 11.8889 113.275 11.9516 113.129C12.0088 112.972 12.0767 112.853 12.1553 112.773C12.2165 112.686 12.2411 112.645 12.2292 112.651L13.4452 112.082C13.3173 112.244 13.2212 112.427 13.157 112.631C13.1054 112.8 13.0825 113 13.0882 113.23C13.0765 113.453 13.1347 113.702 13.2629 113.976C13.4078 114.286 13.5805 114.547 13.781 114.758C13.9696 114.975 14.1621 115.154 14.3586 115.294C14.5495 115.423 14.7412 115.522 14.9336 115.592C15.1142 115.667 15.2689 115.719 15.3977 115.746L19.6358 113.764C19.1947 112.852 18.7318 112.095 18.2472 111.493C17.757 110.88 17.3019 110.388 16.8818 110.018C16.3926 109.593 15.9097 109.259 15.4333 109.017L17.4004 108.097L21.1544 116.127L8.6368 121.979Z" fill="#2B2B2B"/>
<path d="M11.739 91.1356C11.1363 91.1933 10.7015 91.0697 10.4343 90.7648C10.154 90.4611 9.99129 90.0735 9.94613 89.6019C9.90222 89.1434 9.98903 88.7384 10.2066 88.3871C10.411 88.037 10.8145 87.8331 11.4172 87.7754C11.9936 87.7202 12.4285 87.8438 12.7218 88.1462C13.0021 88.4499 13.1642 88.831 13.2081 89.2895C13.2533 89.7611 13.1671 90.1726 12.9495 90.5239C12.7189 90.8765 12.3154 91.0804 11.739 91.1356Z" fill="#2B2B2B"/>
</svg>
