<svg width="48" height="48" viewBox="0 0 48 48" fill="none" xmlns="http://www.w3.org/2000/svg">
<g clip-path="url(#clip0_2163_11182)">
<path d="M28.8008 25.4362C30.3608 29.3962 31.5208 33.4762 32.2808 37.6762C33.3608 37.0362 34.3608 36.2362 35.2808 35.3162C37.6808 32.9163 39.2008 29.9162 39.7608 26.6762C37.4008 25.7162 34.8408 25.1562 32.1608 25.1562C31.0408 25.1562 29.9208 25.2362 28.8008 25.4362Z" fill="#171717"/>
<path d="M35.3202 12.72C35.3202 12.68 35.3202 12.68 35.3202 12.72C32.2802 9.68 28.2802 8 24.0002 8C22.3202 8 20.6802 8.24 19.1602 8.76C21.6402 11.88 23.8402 15.2 25.6802 18.68C29.2002 17.2 32.4402 15.16 35.3202 12.72Z" fill="#171717"/>
<path d="M36.5986 14.1172C33.5586 16.7172 30.1986 18.7972 26.5586 20.3572C27.0786 21.4372 27.5986 22.5572 28.0786 23.6772C29.4386 23.4372 30.7986 23.2772 32.1986 23.2772C34.8786 23.2772 37.5186 23.7572 39.9986 24.7172C39.9986 24.4772 39.9986 24.2372 39.9986 23.9972C39.9986 20.3572 38.7986 16.9172 36.5986 14.1172Z" fill="#171717"/>
<path d="M14.1602 36.6038C16.9602 38.8038 20.4002 40.0037 24.0002 40.0037C26.2802 40.0037 28.5202 39.5237 30.5602 38.6038C29.8002 34.2037 28.5602 29.9237 26.9602 25.8438C21.2802 27.4037 16.6002 31.4038 14.1602 36.6038Z" fill="#171717"/>
<path d="M23.68 24.9981C24.52 24.6381 25.36 24.3581 26.2 24.1181C25.76 23.0781 25.28 22.0781 24.76 21.0781C20.44 22.6781 15.88 23.4781 11.24 23.4781C10.16 23.4781 9.08 23.4381 8 23.3581V23.9981C8 28.2781 9.68 32.2781 12.68 35.3181C13.72 33.2381 15.08 31.3581 16.76 29.6781C18.76 27.6781 21.12 26.0781 23.68 24.9981Z" fill="#171717"/>
<path d="M23.9192 19.3966C21.9992 15.8766 19.7992 12.5566 17.2792 9.47656C15.5992 10.2766 14.0392 11.3566 12.6792 12.6766C10.2392 15.1166 8.71922 18.1566 8.19922 21.4766C9.19922 21.5566 10.2392 21.5966 11.2392 21.5966C15.6792 21.5966 19.9592 20.8366 23.9192 19.3966Z" fill="#171717"/>
</g>
<defs>
<clipPath id="clip0_2163_11182">
<rect width="48" height="48" fill="white"/>
</clipPath>
</defs>
</svg>
