<svg width="48" height="48" viewBox="0 0 48 48" fill="none" xmlns="http://www.w3.org/2000/svg">
<g clip-path="url(#clip0_2163_11184)">
<path d="M38.0013 37.9966V27.7416C38.0013 22.7016 36.9163 18.8516 31.0363 18.8516C28.2013 18.8516 26.3113 20.3916 25.5413 21.8616H25.4713V19.3066H19.9062V37.9966H25.7163V28.7216C25.7163 26.2716 26.1713 23.9266 29.1813 23.9266C32.1563 23.9266 32.1913 26.6916 32.1913 28.8616V37.9616H38.0013V37.9966Z" fill="#171717"/>
<path d="M10.4531 19.3125H16.2631V38.0025H10.4531V19.3125Z" fill="#171717"/>
<path d="M13.36 10C11.505 10 10 11.505 10 13.36C10 15.215 11.505 16.755 13.36 16.755C15.215 16.755 16.72 15.215 16.72 13.36C16.72 11.505 15.215 10 13.36 10Z" fill="#171717"/>
</g>
<defs>
<clipPath id="clip0_2163_11184">
<rect width="48" height="48" fill="white"/>
</clipPath>
</defs>
</svg>
