<svg width="58" height="58" viewBox="0 0 58 58" fill="none" xmlns="http://www.w3.org/2000/svg">
<path d="M16.9263 12.2058C12.3021 10.6066 6.3376 11.4256 3.58898 12.1103C3.48182 12.137 3.4755 12.3023 3.57179 12.3564C5.07886 13.2031 5.86504 16.2863 6.07759 17.824C6.99117 25.7559 12.6249 27.7389 15.3276 27.7389C16.1498 21.129 12.0159 18.3749 9.8461 17.824C17.3375 17.6478 18.7535 25.3153 18.5251 29.1711C18.5251 36.0454 16.6218 42.6112 15.6702 45.0349C23.4356 48.2958 30.4016 46.0998 32.914 44.5942C28.9856 38.0724 29.7164 31.5947 30.7442 29.8321C30.4016 36.442 32.914 41.6197 35.6547 44.5942C38.5096 45.9162 41.3265 45.9162 42.7349 45.806C47.0744 45.4666 49.701 44.484 50.6146 43.8231C54.664 40.1278 55.0423 34.3076 54.6647 31.5991C54.65 31.4932 54.5003 31.4701 54.44 31.5583C53.716 32.6179 51.8782 33.6878 50.7288 33.6878H45.3615C43.4201 33.6878 43.256 35.6708 43.6485 36.8826C44.2195 38.6453 45.666 40.922 46.6177 42.0604C38.6238 37.2131 39.6516 27.996 41.3646 23.8831C43.4396 17.9612 48.6104 14.5981 51.3206 13.4764C51.4282 13.4319 51.4014 13.2679 51.2856 13.2561C40.1577 12.128 33.8023 17.2011 32.0004 19.9172C29.9905 22.2968 28.1177 27.5186 27.4325 29.8321C24.8745 36.1776 22.0272 40.1142 20.9232 41.2893C25.0344 34.7675 25.9099 26.3068 25.8337 22.8916C25.3769 16.9868 19.7051 13.3074 16.9263 12.2058Z" fill="#E0DFBF" stroke="#E0DFBF" stroke-width="0.220331"/>
</svg>
