<svg width="334" height="158" viewBox="0 0 334 158" fill="none" xmlns="http://www.w3.org/2000/svg">
<path d="M92.4041 41.864H86.9561V56H83.6681V41.864H78.2201V38.96H92.4041V41.864ZM106.015 56H102.799V48.944C102.799 47.968 102.607 47.24 102.223 46.76C101.855 46.28 101.343 46.04 100.687 46.04C100.303 46.04 99.8954 46.152 99.4634 46.376C99.0314 46.6 98.6394 46.912 98.2874 47.312C97.9514 47.696 97.7034 48.144 97.5434 48.656V56H94.3274V38.48H97.5434V45.752C98.0074 44.952 98.6394 44.328 99.4394 43.88C100.239 43.432 101.111 43.208 102.055 43.208C102.871 43.208 103.535 43.352 104.047 43.64C104.559 43.912 104.959 44.288 105.247 44.768C105.535 45.232 105.735 45.76 105.847 46.352C105.959 46.928 106.015 47.528 106.015 48.152V56ZM114.764 56.24C113.756 56.24 112.844 56.072 112.028 55.736C111.212 55.384 110.516 54.912 109.94 54.32C109.364 53.712 108.916 53.024 108.596 52.256C108.292 51.472 108.14 50.648 108.14 49.784C108.14 48.584 108.404 47.488 108.932 46.496C109.476 45.504 110.244 44.712 111.236 44.12C112.244 43.512 113.428 43.208 114.788 43.208C116.164 43.208 117.34 43.512 118.316 44.12C119.292 44.712 120.036 45.504 120.548 46.496C121.076 47.472 121.34 48.528 121.34 49.664C121.34 49.856 121.332 50.056 121.316 50.264C121.3 50.456 121.284 50.616 121.268 50.744H111.548C111.612 51.384 111.796 51.944 112.1 52.424C112.42 52.904 112.82 53.272 113.3 53.528C113.796 53.768 114.324 53.888 114.884 53.888C115.524 53.888 116.124 53.736 116.684 53.432C117.26 53.112 117.652 52.696 117.86 52.184L120.62 52.952C120.316 53.592 119.876 54.16 119.3 54.656C118.74 55.152 118.076 55.544 117.308 55.832C116.54 56.104 115.692 56.24 114.764 56.24ZM111.476 48.704H118.052C117.988 48.064 117.804 47.512 117.5 47.048C117.212 46.568 116.828 46.2 116.348 45.944C115.868 45.672 115.332 45.536 114.74 45.536C114.164 45.536 113.636 45.672 113.156 45.944C112.692 46.2 112.308 46.568 112.004 47.048C111.716 47.512 111.54 48.064 111.476 48.704ZM136.889 56.12C135.641 56.12 134.505 55.88 133.481 55.4C132.473 54.92 131.601 54.272 130.865 53.456C130.145 52.624 129.585 51.696 129.185 50.672C128.785 49.632 128.585 48.568 128.585 47.48C128.585 46.344 128.793 45.264 129.209 44.24C129.641 43.2 130.225 42.28 130.961 41.48C131.713 40.664 132.593 40.024 133.601 39.56C134.625 39.08 135.745 38.84 136.961 38.84C138.193 38.84 139.313 39.088 140.321 39.584C141.345 40.08 142.217 40.744 142.937 41.576C143.657 42.408 144.217 43.336 144.617 44.36C145.017 45.384 145.217 46.44 145.217 47.528C145.217 48.648 145.009 49.728 144.593 50.768C144.177 51.792 143.593 52.712 142.841 53.528C142.105 54.328 141.225 54.96 140.201 55.424C139.193 55.888 138.089 56.12 136.889 56.12ZM131.945 47.48C131.945 48.216 132.057 48.928 132.281 49.616C132.505 50.304 132.825 50.92 133.241 51.464C133.673 51.992 134.193 52.416 134.801 52.736C135.425 53.04 136.129 53.192 136.913 53.192C137.713 53.192 138.425 53.032 139.049 52.712C139.673 52.376 140.193 51.936 140.609 51.392C141.025 50.832 141.337 50.216 141.545 49.544C141.769 48.856 141.881 48.168 141.881 47.48C141.881 46.744 141.761 46.04 141.521 45.368C141.297 44.68 140.969 44.072 140.537 43.544C140.121 43 139.601 42.576 138.977 42.272C138.369 41.952 137.681 41.792 136.913 41.792C136.097 41.792 135.377 41.96 134.753 42.296C134.145 42.616 133.633 43.048 133.217 43.592C132.801 44.136 132.481 44.744 132.257 45.416C132.049 46.088 131.945 46.776 131.945 47.48ZM154.936 46.208C153.96 46.208 153.088 46.4 152.32 46.784C151.552 47.152 151 47.688 150.664 48.392V56H147.448V43.424H150.4V46.112C150.848 45.248 151.416 44.568 152.104 44.072C152.792 43.576 153.52 43.304 154.288 43.256C154.464 43.256 154.6 43.256 154.696 43.256C154.792 43.256 154.872 43.264 154.936 43.28V46.208ZM155.964 49.712C155.964 48.496 156.204 47.4 156.684 46.424C157.164 45.432 157.828 44.648 158.676 44.072C159.524 43.496 160.492 43.208 161.58 43.208C162.508 43.208 163.34 43.44 164.076 43.904C164.828 44.352 165.412 44.928 165.828 45.632V38.48H169.044V52.4C169.044 52.736 169.1 52.976 169.212 53.12C169.324 53.264 169.516 53.352 169.788 53.384V56C169.228 56.112 168.772 56.168 168.42 56.168C167.844 56.168 167.364 56.024 166.98 55.736C166.612 55.448 166.404 55.072 166.356 54.608L166.308 53.816C165.844 54.6 165.212 55.2 164.412 55.616C163.628 56.032 162.804 56.24 161.94 56.24C161.076 56.24 160.276 56.072 159.54 55.736C158.82 55.4 158.188 54.936 157.644 54.344C157.116 53.752 156.7 53.064 156.396 52.28C156.108 51.48 155.964 50.624 155.964 49.712ZM165.828 51.392V48.392C165.668 47.928 165.412 47.512 165.06 47.144C164.708 46.776 164.316 46.488 163.884 46.28C163.452 46.056 163.02 45.944 162.588 45.944C162.092 45.944 161.644 46.048 161.244 46.256C160.844 46.464 160.492 46.744 160.188 47.096C159.9 47.448 159.676 47.856 159.516 48.32C159.372 48.784 159.3 49.272 159.3 49.784C159.3 50.296 159.38 50.784 159.54 51.248C159.716 51.696 159.964 52.088 160.284 52.424C160.604 52.76 160.972 53.024 161.388 53.216C161.82 53.408 162.284 53.504 162.78 53.504C163.084 53.504 163.388 53.456 163.692 53.36C164.012 53.248 164.308 53.104 164.58 52.928C164.868 52.736 165.116 52.512 165.324 52.256C165.548 51.984 165.716 51.696 165.828 51.392ZM178.153 56.24C177.145 56.24 176.233 56.072 175.417 55.736C174.601 55.384 173.905 54.912 173.329 54.32C172.753 53.712 172.305 53.024 171.985 52.256C171.681 51.472 171.529 50.648 171.529 49.784C171.529 48.584 171.793 47.488 172.321 46.496C172.865 45.504 173.633 44.712 174.625 44.12C175.633 43.512 176.817 43.208 178.177 43.208C179.553 43.208 180.729 43.512 181.705 44.12C182.681 44.712 183.425 45.504 183.937 46.496C184.465 47.472 184.729 48.528 184.729 49.664C184.729 49.856 184.721 50.056 184.705 50.264C184.689 50.456 184.673 50.616 184.657 50.744H174.937C175.001 51.384 175.185 51.944 175.489 52.424C175.809 52.904 176.209 53.272 176.689 53.528C177.185 53.768 177.713 53.888 178.273 53.888C178.913 53.888 179.513 53.736 180.073 53.432C180.649 53.112 181.041 52.696 181.249 52.184L184.009 52.952C183.705 53.592 183.265 54.16 182.689 54.656C182.129 55.152 181.465 55.544 180.697 55.832C179.929 56.104 179.081 56.24 178.153 56.24ZM174.865 48.704H181.441C181.377 48.064 181.193 47.512 180.889 47.048C180.601 46.568 180.217 46.2 179.737 45.944C179.257 45.672 178.721 45.536 178.129 45.536C177.553 45.536 177.025 45.672 176.545 45.944C176.081 46.2 175.697 46.568 175.393 47.048C175.105 47.512 174.929 48.064 174.865 48.704ZM194.296 46.208C193.32 46.208 192.448 46.4 191.68 46.784C190.912 47.152 190.36 47.688 190.024 48.392V56H186.808V43.424H189.76V46.112C190.208 45.248 190.776 44.568 191.464 44.072C192.152 43.576 192.88 43.304 193.648 43.256C193.824 43.256 193.96 43.256 194.056 43.256C194.152 43.256 194.232 43.264 194.296 43.28V46.208ZM201.868 56V38.96H213.316V41.864H205.18V46.256H211.948V48.944H205.18V56H201.868ZM215.433 38.48H218.649V51.968C218.649 52.544 218.745 52.936 218.937 53.144C219.129 53.336 219.393 53.432 219.729 53.432C219.985 53.432 220.249 53.4 220.521 53.336C220.793 53.272 221.033 53.192 221.241 53.096L221.673 55.544C221.241 55.752 220.737 55.912 220.161 56.024C219.585 56.136 219.065 56.192 218.601 56.192C217.593 56.192 216.809 55.928 216.249 55.4C215.705 54.856 215.433 54.088 215.433 53.096V38.48ZM229.002 56.24C227.978 56.24 227.058 56.072 226.242 55.736C225.426 55.384 224.73 54.904 224.154 54.296C223.594 53.688 223.162 52.992 222.858 52.208C222.554 51.424 222.402 50.6 222.402 49.736C222.402 48.856 222.554 48.024 222.858 47.24C223.162 46.456 223.594 45.76 224.154 45.152C224.73 44.544 225.426 44.072 226.242 43.736C227.058 43.384 227.978 43.208 229.002 43.208C230.026 43.208 230.938 43.384 231.738 43.736C232.554 44.072 233.25 44.544 233.826 45.152C234.402 45.76 234.834 46.456 235.122 47.24C235.426 48.024 235.578 48.856 235.578 49.736C235.578 50.6 235.426 51.424 235.122 52.208C234.834 52.992 234.402 53.688 233.826 54.296C233.266 54.904 232.578 55.384 231.762 55.736C230.946 56.072 230.026 56.24 229.002 56.24ZM225.714 49.736C225.714 50.472 225.858 51.128 226.146 51.704C226.434 52.264 226.826 52.704 227.322 53.024C227.818 53.344 228.378 53.504 229.002 53.504C229.61 53.504 230.162 53.344 230.658 53.024C231.154 52.688 231.546 52.24 231.834 51.68C232.138 51.104 232.29 50.448 232.29 49.712C232.29 48.992 232.138 48.344 231.834 47.768C231.546 47.192 231.154 46.744 230.658 46.424C230.162 46.104 229.61 45.944 229.002 45.944C228.378 45.944 227.818 46.112 227.322 46.448C226.826 46.768 226.434 47.216 226.146 47.792C225.858 48.352 225.714 49 225.714 49.736ZM253.047 43.424H256.095L250.839 56H248.151L246.039 50.6L243.975 56H241.263L236.031 43.424H239.055L242.799 52.928L244.263 48.824L242.079 43.448H244.743L246.039 47.288L247.359 43.448H250.023L247.839 48.824L249.327 52.928L253.047 43.424Z" fill="#EB8906"/>
<path d="M5.90192 135V85.6366H26.8292C29.1004 85.6366 31.1862 86.1001 33.0866 87.0271C34.9869 87.9541 36.6324 89.2056 38.0229 90.7815C39.4598 92.3574 40.5722 94.1188 41.3601 96.0655C42.1481 98.0122 42.5421 100.005 42.5421 102.045C42.5421 104.826 41.8932 107.468 40.5954 109.971C39.2975 112.474 37.513 114.513 35.2419 116.089C32.9707 117.665 30.2823 118.453 27.1769 118.453H15.4965V135H5.90192ZM15.4965 110.04H26.6206C27.7794 110.04 28.8223 109.716 29.7493 109.067C30.6763 108.418 31.4179 107.491 31.9741 106.286C32.5304 105.034 32.8085 103.621 32.8085 102.045C32.8085 100.33 32.484 98.8697 31.8351 97.6646C31.2325 96.4595 30.4214 95.5556 29.4017 94.9531C28.4283 94.3505 27.3623 94.0492 26.2035 94.0492H15.4965V110.04ZM70.3557 106.633C67.5283 106.633 65.0022 107.19 62.7774 108.302C60.5526 109.368 58.9535 110.921 57.9801 112.96V135H48.6636V98.5684H57.2153V106.355C58.5131 103.852 60.1586 101.882 62.1517 100.446C64.1447 99.0087 66.2537 98.2208 68.4785 98.0817C68.9884 98.0817 69.3824 98.0817 69.6605 98.0817C69.9386 98.0817 70.1703 98.1049 70.3557 98.1513V106.633ZM92.2482 135.695C89.2818 135.695 86.6166 135.209 84.2528 134.235C81.8889 133.216 79.8726 131.825 78.204 130.064C76.5817 128.302 75.3303 126.286 74.4496 124.015C73.5689 121.744 73.1286 119.357 73.1286 116.854C73.1286 114.304 73.5689 111.894 74.4496 109.623C75.3303 107.352 76.5817 105.336 78.204 103.574C79.8726 101.813 81.8889 100.446 84.2528 99.4722C86.6166 98.4525 89.2818 97.9427 92.2482 97.9427C95.2147 97.9427 97.8567 98.4525 100.174 99.4722C102.538 100.446 104.554 101.813 106.223 103.574C107.892 105.336 109.143 107.352 109.977 109.623C110.858 111.894 111.298 114.304 111.298 116.854C111.298 119.357 110.858 121.744 109.977 124.015C109.143 126.286 107.892 128.302 106.223 130.064C104.601 131.825 102.608 133.216 100.244 134.235C97.8798 135.209 95.2147 135.695 92.2482 135.695ZM82.7232 116.854C82.7232 118.986 83.1403 120.886 83.9746 122.555C84.809 124.177 85.9445 125.452 87.3814 126.379C88.8183 127.306 90.4406 127.769 92.2482 127.769C94.0096 127.769 95.6087 127.306 97.0455 126.379C98.4824 125.405 99.618 124.108 100.452 122.485C101.333 120.817 101.773 118.916 101.773 116.784C101.773 114.698 101.333 112.821 100.452 111.153C99.618 109.484 98.4824 108.186 97.0455 107.259C95.6087 106.332 94.0096 105.869 92.2482 105.869C90.4406 105.869 88.8183 106.355 87.3814 107.329C85.9445 108.256 84.809 109.554 83.9746 111.222C83.1403 112.844 82.7232 114.722 82.7232 116.854ZM139.222 133.123C138.434 133.447 137.484 133.818 136.372 134.235C135.259 134.652 134.054 134.977 132.756 135.209C131.505 135.487 130.23 135.626 128.932 135.626C127.217 135.626 125.641 135.324 124.205 134.722C122.768 134.119 121.609 133.169 120.728 131.871C119.894 130.527 119.477 128.789 119.477 126.657V105.73H114.68V98.5684H119.477V86.749H128.793V98.5684H136.441V105.73H128.793V123.528C128.84 124.78 129.187 125.684 129.836 126.24C130.485 126.796 131.296 127.074 132.27 127.074C133.243 127.074 134.193 126.912 135.12 126.587C136.047 126.263 136.789 125.985 137.345 125.753L139.222 133.123ZM160.84 135.695C157.873 135.695 155.208 135.209 152.844 134.235C150.481 133.216 148.464 131.825 146.796 130.064C145.173 128.302 143.922 126.286 143.041 124.015C142.161 121.744 141.72 119.357 141.72 116.854C141.72 114.304 142.161 111.894 143.041 109.623C143.922 107.352 145.173 105.336 146.796 103.574C148.464 101.813 150.481 100.446 152.844 99.4722C155.208 98.4525 157.873 97.9427 160.84 97.9427C163.806 97.9427 166.448 98.4525 168.766 99.4722C171.13 100.446 173.146 101.813 174.815 103.574C176.483 105.336 177.735 107.352 178.569 109.623C179.45 111.894 179.89 114.304 179.89 116.854C179.89 119.357 179.45 121.744 178.569 124.015C177.735 126.286 176.483 128.302 174.815 130.064C173.192 131.825 171.199 133.216 168.835 134.235C166.472 135.209 163.806 135.695 160.84 135.695ZM151.315 116.854C151.315 118.986 151.732 120.886 152.566 122.555C153.401 124.177 154.536 125.452 155.973 126.379C157.41 127.306 159.032 127.769 160.84 127.769C162.601 127.769 164.2 127.306 165.637 126.379C167.074 125.405 168.21 124.108 169.044 122.485C169.925 120.817 170.365 118.916 170.365 116.784C170.365 114.698 169.925 112.821 169.044 111.153C168.21 109.484 167.074 108.186 165.637 107.259C164.2 106.332 162.601 105.869 160.84 105.869C159.032 105.869 157.41 106.355 155.973 107.329C154.536 108.256 153.401 109.554 152.566 111.222C151.732 112.844 151.315 114.722 151.315 116.854ZM207.814 133.123C207.026 133.447 206.076 133.818 204.963 134.235C203.851 134.652 202.646 134.977 201.348 135.209C200.097 135.487 198.822 135.626 197.524 135.626C195.809 135.626 194.233 135.324 192.796 134.722C191.359 134.119 190.201 133.169 189.32 131.871C188.486 130.527 188.069 128.789 188.069 126.657V105.73H183.271V98.5684H188.069V86.749H197.385V98.5684H205.033V105.73H197.385V123.528C197.431 124.78 197.779 125.684 198.428 126.24C199.077 126.796 199.888 127.074 200.861 127.074C201.835 127.074 202.785 126.912 203.712 126.587C204.639 126.263 205.38 125.985 205.937 125.753L207.814 133.123ZM213.643 142.092C214.477 142.277 215.242 142.439 215.937 142.578C216.679 142.717 217.304 142.787 217.814 142.787C218.695 142.787 219.413 142.555 219.97 142.092C220.572 141.674 221.151 140.887 221.708 139.728C222.264 138.615 222.843 137.039 223.446 135L209.054 98.5684H218.718L228.521 125.475L237.142 98.5684H246.042L230.746 142.231C230.19 143.853 229.332 145.313 228.174 146.611C227.061 147.955 225.647 148.998 223.932 149.739C222.264 150.527 220.387 150.921 218.301 150.921C217.559 150.921 216.818 150.852 216.076 150.713C215.334 150.62 214.523 150.435 213.643 150.157V142.092ZM273.282 135.695C270.455 135.695 267.952 135.07 265.774 133.818C263.641 132.52 261.973 130.782 260.768 128.604V149.809H251.451V98.5684H259.586V104.826C260.976 102.694 262.738 101.025 264.87 99.8199C267.002 98.5684 269.435 97.9427 272.17 97.9427C274.627 97.9427 276.875 98.4294 278.914 99.4027C281 100.376 282.807 101.743 284.337 103.505C285.867 105.22 287.048 107.213 287.883 109.484C288.763 111.709 289.204 114.119 289.204 116.715C289.204 120.237 288.509 123.436 287.118 126.309C285.774 129.183 283.897 131.477 281.486 133.192C279.123 134.861 276.388 135.695 273.282 135.695ZM270.154 127.769C271.591 127.769 272.888 127.468 274.047 126.865C275.206 126.263 276.202 125.452 277.037 124.432C277.917 123.366 278.566 122.184 278.983 120.886C279.447 119.542 279.679 118.152 279.679 116.715C279.679 115.185 279.424 113.771 278.914 112.474C278.45 111.176 277.755 110.04 276.828 109.067C275.901 108.047 274.812 107.259 273.56 106.703C272.355 106.147 271.034 105.869 269.597 105.869C268.717 105.869 267.813 106.031 266.886 106.355C266.005 106.633 265.148 107.051 264.313 107.607C263.479 108.163 262.738 108.812 262.089 109.554C261.486 110.295 261.046 111.106 260.768 111.987V120.539C261.324 121.883 262.065 123.111 262.992 124.223C263.966 125.336 265.078 126.217 266.33 126.865C267.581 127.468 268.856 127.769 270.154 127.769ZM312.758 135.695C309.838 135.695 307.196 135.209 304.832 134.235C302.469 133.216 300.452 131.848 298.784 130.133C297.115 128.372 295.817 126.379 294.89 124.154C294.01 121.883 293.569 119.496 293.569 116.993C293.569 113.516 294.334 110.341 295.864 107.468C297.44 104.594 299.664 102.3 302.538 100.585C305.458 98.8233 308.888 97.9427 312.828 97.9427C316.814 97.9427 320.221 98.8233 323.048 100.585C325.876 102.3 328.031 104.594 329.514 107.468C331.044 110.295 331.808 113.354 331.808 116.645C331.808 117.201 331.785 117.781 331.739 118.383C331.693 118.94 331.646 119.403 331.6 119.774H303.442C303.627 121.628 304.16 123.25 305.041 124.641C305.968 126.031 307.127 127.097 308.517 127.839C309.954 128.534 311.484 128.882 313.106 128.882C314.96 128.882 316.698 128.441 318.32 127.561C319.989 126.634 321.125 125.429 321.727 123.945L329.723 126.17C328.842 128.024 327.567 129.67 325.899 131.107C324.277 132.543 322.353 133.679 320.128 134.513C317.903 135.301 315.447 135.695 312.758 135.695ZM303.233 113.864H322.283C322.098 112.01 321.565 110.411 320.684 109.067C319.85 107.676 318.738 106.61 317.347 105.869C315.957 105.081 314.404 104.687 312.689 104.687C311.02 104.687 309.491 105.081 308.1 105.869C306.756 106.61 305.644 107.676 304.763 109.067C303.929 110.411 303.419 112.01 303.233 113.864Z" fill="#CECECE"/>
</svg>
