<svg width="783" height="158" viewBox="0 0 783 158" fill="none" xmlns="http://www.w3.org/2000/svg">
<path d="M280.723 56.12C279.619 56.12 278.571 55.896 277.579 55.448C276.603 55 275.739 54.384 274.987 53.6C274.251 52.8 273.675 51.872 273.259 50.816C272.843 49.76 272.635 48.616 272.635 47.384C272.635 46.216 272.843 45.12 273.259 44.096C273.675 43.056 274.259 42.144 275.011 41.36C275.763 40.576 276.643 39.96 277.651 39.512C278.659 39.064 279.755 38.84 280.939 38.84C282.539 38.84 283.907 39.184 285.043 39.872C286.195 40.544 287.059 41.44 287.635 42.56L285.163 44.384C284.731 43.536 284.123 42.888 283.339 42.44C282.571 41.992 281.731 41.768 280.819 41.768C280.099 41.768 279.443 41.92 278.851 42.224C278.259 42.528 277.747 42.944 277.315 43.472C276.883 44 276.547 44.608 276.307 45.296C276.083 45.984 275.971 46.712 275.971 47.48C275.971 48.296 276.091 49.048 276.331 49.736C276.587 50.424 276.939 51.024 277.387 51.536C277.851 52.048 278.387 52.456 278.995 52.76C279.603 53.048 280.275 53.192 281.011 53.192C281.875 53.192 282.699 52.968 283.483 52.52C284.283 52.072 285.027 51.416 285.715 50.552V53.816C284.291 55.352 282.627 56.12 280.723 56.12ZM285.475 49.664H282.043V47.24H288.211V56H285.475V49.664ZM298.33 46.208C297.354 46.208 296.482 46.4 295.714 46.784C294.946 47.152 294.394 47.688 294.058 48.392V56H290.842V43.424H293.794V46.112C294.242 45.248 294.81 44.568 295.498 44.072C296.186 43.576 296.914 43.304 297.682 43.256C297.858 43.256 297.994 43.256 298.09 43.256C298.186 43.256 298.266 43.264 298.33 43.28V46.208ZM305.887 56.24C304.863 56.24 303.943 56.072 303.127 55.736C302.311 55.384 301.615 54.904 301.039 54.296C300.479 53.688 300.047 52.992 299.743 52.208C299.439 51.424 299.287 50.6 299.287 49.736C299.287 48.856 299.439 48.024 299.743 47.24C300.047 46.456 300.479 45.76 301.039 45.152C301.615 44.544 302.311 44.072 303.127 43.736C303.943 43.384 304.863 43.208 305.887 43.208C306.911 43.208 307.823 43.384 308.623 43.736C309.439 44.072 310.135 44.544 310.711 45.152C311.287 45.76 311.719 46.456 312.007 47.24C312.311 48.024 312.463 48.856 312.463 49.736C312.463 50.6 312.311 51.424 312.007 52.208C311.719 52.992 311.287 53.688 310.711 54.296C310.151 54.904 309.463 55.384 308.647 55.736C307.831 56.072 306.911 56.24 305.887 56.24ZM302.599 49.736C302.599 50.472 302.743 51.128 303.031 51.704C303.319 52.264 303.711 52.704 304.207 53.024C304.703 53.344 305.263 53.504 305.887 53.504C306.495 53.504 307.047 53.344 307.543 53.024C308.039 52.688 308.431 52.24 308.719 51.68C309.023 51.104 309.175 50.448 309.175 49.712C309.175 48.992 309.023 48.344 308.719 47.768C308.431 47.192 308.039 46.744 307.543 46.424C307.047 46.104 306.495 45.944 305.887 45.944C305.263 45.944 304.703 46.112 304.207 46.448C303.711 46.768 303.319 47.216 303.031 47.792C302.743 48.352 302.599 49 302.599 49.736ZM314.634 51.296V43.424H317.85V50.6C317.85 51.56 318.026 52.288 318.378 52.784C318.73 53.264 319.25 53.504 319.938 53.504C320.354 53.504 320.762 53.424 321.162 53.264C321.578 53.088 321.954 52.832 322.29 52.496C322.642 52.16 322.938 51.736 323.178 51.224V43.424H326.394V52.4C326.394 52.736 326.45 52.976 326.562 53.12C326.69 53.264 326.89 53.352 327.162 53.384V56C326.842 56.048 326.57 56.08 326.346 56.096C326.138 56.128 325.946 56.144 325.77 56.144C325.194 56.144 324.722 56.016 324.354 55.76C324.002 55.488 323.794 55.12 323.73 54.656L323.658 53.648C323.098 54.496 322.378 55.144 321.498 55.592C320.618 56.024 319.65 56.24 318.594 56.24C317.298 56.24 316.314 55.824 315.642 54.992C314.97 54.144 314.634 52.912 314.634 51.296ZM337.246 56.24C336.27 56.24 335.406 56.024 334.654 55.592C333.918 55.144 333.342 54.544 332.926 53.792V61.112H329.71V43.424H332.518V45.584C332.998 44.848 333.606 44.272 334.342 43.856C335.078 43.424 335.918 43.208 336.862 43.208C337.71 43.208 338.486 43.376 339.19 43.712C339.91 44.048 340.534 44.52 341.062 45.128C341.59 45.72 341.998 46.408 342.286 47.192C342.59 47.96 342.742 48.792 342.742 49.688C342.742 50.904 342.502 52.008 342.022 53C341.558 53.992 340.91 54.784 340.078 55.376C339.262 55.952 338.318 56.24 337.246 56.24ZM336.166 53.504C336.662 53.504 337.11 53.4 337.51 53.192C337.91 52.984 338.254 52.704 338.542 52.352C338.846 51.984 339.07 51.576 339.214 51.128C339.374 50.664 339.454 50.184 339.454 49.688C339.454 49.16 339.366 48.672 339.19 48.224C339.03 47.776 338.79 47.384 338.47 47.048C338.15 46.696 337.774 46.424 337.342 46.232C336.926 46.04 336.47 45.944 335.974 45.944C335.67 45.944 335.358 46 335.038 46.112C334.734 46.208 334.438 46.352 334.15 46.544C333.862 46.736 333.606 46.96 333.382 47.216C333.174 47.472 333.022 47.752 332.926 48.056V51.008C333.118 51.472 333.374 51.896 333.694 52.28C334.03 52.664 334.414 52.968 334.846 53.192C335.278 53.4 335.718 53.504 336.166 53.504ZM350.206 47.36C350.206 46.32 350.39 45.304 350.758 44.312C351.142 43.304 351.694 42.392 352.414 41.576C353.134 40.744 354.014 40.088 355.054 39.608C356.094 39.112 357.278 38.864 358.606 38.864C360.174 38.864 361.526 39.208 362.662 39.896C363.814 40.584 364.67 41.48 365.23 42.584L362.686 44.336C362.398 43.696 362.022 43.192 361.558 42.824C361.094 42.44 360.598 42.176 360.07 42.032C359.542 41.872 359.022 41.792 358.51 41.792C357.678 41.792 356.95 41.96 356.326 42.296C355.718 42.632 355.206 43.072 354.79 43.616C354.374 44.16 354.062 44.768 353.854 45.44C353.662 46.112 353.566 46.784 353.566 47.456C353.566 48.208 353.686 48.936 353.926 49.64C354.166 50.328 354.502 50.944 354.934 51.488C355.382 52.016 355.91 52.44 356.518 52.76C357.142 53.064 357.822 53.216 358.558 53.216C359.086 53.216 359.622 53.128 360.166 52.952C360.71 52.776 361.214 52.496 361.678 52.112C362.142 51.728 362.502 51.232 362.758 50.624L365.47 52.184C365.134 53.032 364.582 53.752 363.814 54.344C363.062 54.936 362.214 55.384 361.27 55.688C360.326 55.992 359.39 56.144 358.462 56.144C357.246 56.144 356.134 55.896 355.126 55.4C354.118 54.888 353.246 54.216 352.51 53.384C351.79 52.536 351.222 51.592 350.806 50.552C350.406 49.496 350.206 48.432 350.206 47.36ZM374.987 46.208C374.011 46.208 373.139 46.4 372.371 46.784C371.603 47.152 371.051 47.688 370.715 48.392V56H367.499V43.424H370.451V46.112C370.899 45.248 371.467 44.568 372.155 44.072C372.843 43.576 373.571 43.304 374.339 43.256C374.515 43.256 374.651 43.256 374.747 43.256C374.843 43.256 374.923 43.264 374.987 43.28V46.208ZM382.569 56.24C381.561 56.24 380.649 56.072 379.833 55.736C379.017 55.384 378.321 54.912 377.745 54.32C377.169 53.712 376.721 53.024 376.401 52.256C376.097 51.472 375.945 50.648 375.945 49.784C375.945 48.584 376.209 47.488 376.737 46.496C377.281 45.504 378.049 44.712 379.041 44.12C380.049 43.512 381.233 43.208 382.593 43.208C383.969 43.208 385.145 43.512 386.121 44.12C387.097 44.712 387.841 45.504 388.353 46.496C388.881 47.472 389.145 48.528 389.145 49.664C389.145 49.856 389.137 50.056 389.121 50.264C389.105 50.456 389.089 50.616 389.073 50.744H379.353C379.417 51.384 379.601 51.944 379.905 52.424C380.225 52.904 380.625 53.272 381.105 53.528C381.601 53.768 382.129 53.888 382.689 53.888C383.329 53.888 383.929 53.736 384.489 53.432C385.065 53.112 385.457 52.696 385.665 52.184L388.425 52.952C388.121 53.592 387.681 54.16 387.105 54.656C386.545 55.152 385.881 55.544 385.113 55.832C384.345 56.104 383.497 56.24 382.569 56.24ZM379.281 48.704H385.857C385.793 48.064 385.609 47.512 385.305 47.048C385.017 46.568 384.633 46.2 384.153 45.944C383.673 45.672 383.137 45.536 382.545 45.536C381.969 45.536 381.441 45.672 380.961 45.944C380.497 46.2 380.113 46.568 379.809 47.048C379.521 47.512 379.345 48.064 379.281 48.704ZM390.36 52.28C390.36 51.464 390.584 50.752 391.032 50.144C391.496 49.52 392.136 49.04 392.952 48.704C393.768 48.368 394.704 48.2 395.76 48.2C396.288 48.2 396.824 48.24 397.368 48.32C397.912 48.4 398.384 48.528 398.784 48.704V48.032C398.784 47.232 398.544 46.616 398.064 46.184C397.6 45.752 396.904 45.536 395.976 45.536C395.288 45.536 394.632 45.656 394.008 45.896C393.384 46.136 392.728 46.488 392.04 46.952L391.008 44.84C391.84 44.296 392.688 43.888 393.552 43.616C394.432 43.344 395.352 43.208 396.312 43.208C398.104 43.208 399.496 43.656 400.488 44.552C401.496 45.448 402 46.728 402 48.392V52.4C402 52.736 402.056 52.976 402.168 53.12C402.296 53.264 402.496 53.352 402.768 53.384V56C402.48 56.048 402.216 56.088 401.976 56.12C401.752 56.152 401.56 56.168 401.4 56.168C400.76 56.168 400.272 56.024 399.936 55.736C399.616 55.448 399.416 55.096 399.336 54.68L399.264 54.032C398.72 54.736 398.04 55.28 397.224 55.664C396.408 56.048 395.576 56.24 394.728 56.24C393.896 56.24 393.144 56.072 392.472 55.736C391.816 55.384 391.296 54.912 390.912 54.32C390.544 53.712 390.36 53.032 390.36 52.28ZM398.184 52.928C398.36 52.736 398.504 52.544 398.616 52.352C398.728 52.16 398.784 51.984 398.784 51.824V50.552C398.4 50.392 397.984 50.272 397.536 50.192C397.088 50.096 396.664 50.048 396.264 50.048C395.432 50.048 394.744 50.232 394.2 50.6C393.672 50.952 393.408 51.424 393.408 52.016C393.408 52.336 393.496 52.64 393.672 52.928C393.848 53.216 394.104 53.448 394.44 53.624C394.776 53.8 395.176 53.888 395.64 53.888C396.12 53.888 396.592 53.8 397.056 53.624C397.52 53.432 397.896 53.2 398.184 52.928ZM412.544 55.352C412.272 55.464 411.944 55.592 411.56 55.736C411.176 55.88 410.76 55.992 410.312 56.072C409.88 56.168 409.44 56.216 408.992 56.216C408.4 56.216 407.856 56.112 407.36 55.904C406.864 55.696 406.464 55.368 406.16 54.92C405.872 54.456 405.728 53.856 405.728 53.12V45.896H404.072V43.424H405.728V39.344H408.944V43.424H411.584V45.896H408.944V52.04C408.96 52.472 409.08 52.784 409.304 52.976C409.528 53.168 409.808 53.264 410.144 53.264C410.48 53.264 410.808 53.208 411.128 53.096C411.448 52.984 411.704 52.888 411.896 52.808L412.544 55.352ZM414.339 56V43.424H417.555V56H414.339ZM414.339 41.672V38.48H417.555V41.672H414.339ZM426.384 56.24C425.36 56.24 424.44 56.072 423.624 55.736C422.808 55.384 422.112 54.904 421.536 54.296C420.976 53.688 420.544 52.992 420.24 52.208C419.936 51.424 419.784 50.6 419.784 49.736C419.784 48.856 419.936 48.024 420.24 47.24C420.544 46.456 420.976 45.76 421.536 45.152C422.112 44.544 422.808 44.072 423.624 43.736C424.44 43.384 425.36 43.208 426.384 43.208C427.408 43.208 428.32 43.384 429.12 43.736C429.936 44.072 430.632 44.544 431.208 45.152C431.784 45.76 432.216 46.456 432.504 47.24C432.808 48.024 432.96 48.856 432.96 49.736C432.96 50.6 432.808 51.424 432.504 52.208C432.216 52.992 431.784 53.688 431.208 54.296C430.648 54.904 429.96 55.384 429.144 55.736C428.328 56.072 427.408 56.24 426.384 56.24ZM423.096 49.736C423.096 50.472 423.24 51.128 423.528 51.704C423.816 52.264 424.208 52.704 424.704 53.024C425.2 53.344 425.76 53.504 426.384 53.504C426.992 53.504 427.544 53.344 428.04 53.024C428.536 52.688 428.928 52.24 429.216 51.68C429.52 51.104 429.672 50.448 429.672 49.712C429.672 48.992 429.52 48.344 429.216 47.768C428.928 47.192 428.536 46.744 428.04 46.424C427.544 46.104 426.992 45.944 426.384 45.944C425.76 45.944 425.2 46.112 424.704 46.448C424.208 46.768 423.816 47.216 423.528 47.792C423.24 48.352 423.096 49 423.096 49.736ZM446.939 56H443.723V48.944C443.723 47.936 443.547 47.2 443.195 46.736C442.843 46.272 442.355 46.04 441.731 46.04C441.299 46.04 440.859 46.152 440.411 46.376C439.979 46.6 439.587 46.912 439.235 47.312C438.883 47.696 438.627 48.144 438.467 48.656V56H435.251V43.424H438.155V45.752C438.475 45.208 438.883 44.752 439.379 44.384C439.875 44 440.443 43.712 441.083 43.52C441.739 43.312 442.427 43.208 443.147 43.208C443.931 43.208 444.571 43.352 445.067 43.64C445.579 43.912 445.963 44.288 446.219 44.768C446.491 45.232 446.675 45.76 446.771 46.352C446.883 46.944 446.939 47.544 446.939 48.152V56ZM456.053 56V38.96H467.501V41.864H459.365V46.256H466.133V48.944H459.365V56H456.053ZM469.618 38.48H472.834V51.968C472.834 52.544 472.93 52.936 473.122 53.144C473.314 53.336 473.578 53.432 473.914 53.432C474.17 53.432 474.434 53.4 474.706 53.336C474.978 53.272 475.218 53.192 475.426 53.096L475.858 55.544C475.426 55.752 474.922 55.912 474.346 56.024C473.77 56.136 473.25 56.192 472.786 56.192C471.778 56.192 470.994 55.928 470.434 55.4C469.89 54.856 469.618 54.088 469.618 53.096V38.48ZM483.187 56.24C482.163 56.24 481.243 56.072 480.427 55.736C479.611 55.384 478.915 54.904 478.339 54.296C477.779 53.688 477.347 52.992 477.043 52.208C476.739 51.424 476.587 50.6 476.587 49.736C476.587 48.856 476.739 48.024 477.043 47.24C477.347 46.456 477.779 45.76 478.339 45.152C478.915 44.544 479.611 44.072 480.427 43.736C481.243 43.384 482.163 43.208 483.187 43.208C484.211 43.208 485.123 43.384 485.923 43.736C486.739 44.072 487.435 44.544 488.011 45.152C488.587 45.76 489.019 46.456 489.307 47.24C489.611 48.024 489.763 48.856 489.763 49.736C489.763 50.6 489.611 51.424 489.307 52.208C489.019 52.992 488.587 53.688 488.011 54.296C487.451 54.904 486.763 55.384 485.947 55.736C485.131 56.072 484.211 56.24 483.187 56.24ZM479.899 49.736C479.899 50.472 480.043 51.128 480.331 51.704C480.619 52.264 481.011 52.704 481.507 53.024C482.003 53.344 482.563 53.504 483.187 53.504C483.795 53.504 484.347 53.344 484.843 53.024C485.339 52.688 485.731 52.24 486.019 51.68C486.323 51.104 486.475 50.448 486.475 49.712C486.475 48.992 486.323 48.344 486.019 47.768C485.731 47.192 485.339 46.744 484.843 46.424C484.347 46.104 483.795 45.944 483.187 45.944C482.563 45.944 482.003 46.112 481.507 46.448C481.011 46.768 480.619 47.216 480.331 47.792C480.043 48.352 479.899 49 479.899 49.736ZM507.232 43.424H510.28L505.024 56H502.336L500.224 50.6L498.16 56H495.448L490.216 43.424H493.24L496.984 52.928L498.448 48.824L496.264 43.448H498.928L500.224 47.288L501.544 43.448H504.208L502.024 48.824L503.512 52.928L507.232 43.424Z" fill="#EB8906"/>
<path d="M191.344 135V85.6366H213.175C215.446 85.6366 217.532 86.1001 219.433 87.0271C221.379 87.9541 223.048 89.2056 224.438 90.7815C225.875 92.3574 226.965 94.1188 227.706 96.0655C228.494 98.0122 228.888 100.005 228.888 102.045C228.888 104.13 228.517 106.147 227.776 108.093C227.08 109.994 226.061 111.662 224.717 113.099C223.372 114.536 221.796 115.649 219.989 116.437L231.252 135H220.684L210.533 118.453H200.939V135H191.344ZM200.939 110.04H212.967C214.172 110.04 215.238 109.693 216.165 108.997C217.092 108.256 217.833 107.282 218.39 106.077C218.946 104.872 219.224 103.528 219.224 102.045C219.224 100.469 218.9 99.1014 218.251 97.9427C217.602 96.7376 216.767 95.7874 215.748 95.0921C214.774 94.3969 213.708 94.0492 212.549 94.0492H200.939V110.04ZM252.698 135.695C249.778 135.695 247.136 135.209 244.772 134.235C242.408 133.216 240.392 131.848 238.723 130.133C237.055 128.372 235.757 126.379 234.83 124.154C233.949 121.883 233.509 119.496 233.509 116.993C233.509 113.516 234.274 110.341 235.803 107.468C237.379 104.594 239.604 102.3 242.478 100.585C245.398 98.8233 248.828 97.9427 252.767 97.9427C256.754 97.9427 260.16 98.8233 262.988 100.585C265.815 102.3 267.97 104.594 269.454 107.468C270.983 110.295 271.748 113.354 271.748 116.645C271.748 117.201 271.725 117.781 271.679 118.383C271.632 118.94 271.586 119.403 271.539 119.774H243.381C243.567 121.628 244.1 123.25 244.981 124.641C245.908 126.031 247.066 127.097 248.457 127.839C249.894 128.534 251.423 128.882 253.046 128.882C254.9 128.882 256.638 128.441 258.26 127.561C259.929 126.634 261.064 125.429 261.667 123.945L269.662 126.17C268.782 128.024 267.507 129.67 265.838 131.107C264.216 132.543 262.293 133.679 260.068 134.513C257.843 135.301 255.386 135.695 252.698 135.695ZM243.173 113.864H262.223C262.038 112.01 261.505 110.411 260.624 109.067C259.79 107.676 258.677 106.61 257.287 105.869C255.896 105.081 254.343 104.687 252.628 104.687C250.96 104.687 249.43 105.081 248.04 105.869C246.696 106.61 245.583 107.676 244.702 109.067C243.868 110.411 243.358 112.01 243.173 113.864ZM279.792 135V107.607H274.995V100.515H279.792V98.2903C279.792 95.2775 280.279 92.6819 281.252 90.5034C282.272 88.2786 283.686 86.5636 285.494 85.3585C287.348 84.1534 289.503 83.5508 291.959 83.5508C293.443 83.5508 294.926 83.7362 296.409 84.107C297.939 84.4778 299.445 85.0109 300.928 85.7061L299.051 92.7282C298.356 92.3574 297.545 92.0562 296.618 91.8244C295.691 91.5463 294.81 91.4072 293.976 91.4072C292.4 91.4072 291.195 91.9635 290.36 93.0759C289.526 94.1883 289.109 95.8105 289.109 97.9427V100.515H298.008V107.607H289.109V135H279.792ZM320.068 135.695C317.147 135.695 314.505 135.209 312.142 134.235C309.778 133.216 307.761 131.848 306.093 130.133C304.424 128.372 303.126 126.379 302.199 124.154C301.319 121.883 300.878 119.496 300.878 116.993C300.878 113.516 301.643 110.341 303.173 107.468C304.749 104.594 306.973 102.3 309.847 100.585C312.767 98.8233 316.197 97.9427 320.137 97.9427C324.123 97.9427 327.53 98.8233 330.357 100.585C333.185 102.3 335.34 104.594 336.823 107.468C338.353 110.295 339.118 113.354 339.118 116.645C339.118 117.201 339.094 117.781 339.048 118.383C339.002 118.94 338.955 119.403 338.909 119.774H310.751C310.936 121.628 311.469 123.25 312.35 124.641C313.277 126.031 314.436 127.097 315.826 127.839C317.263 128.534 318.793 128.882 320.415 128.882C322.269 128.882 324.007 128.441 325.63 127.561C327.298 126.634 328.434 125.429 329.036 123.945L337.032 126.17C336.151 128.024 334.877 129.67 333.208 131.107C331.586 132.543 329.662 133.679 327.437 134.513C325.212 135.301 322.756 135.695 320.068 135.695ZM310.542 113.864H329.593C329.407 112.01 328.874 110.411 327.993 109.067C327.159 107.676 326.047 106.61 324.656 105.869C323.266 105.081 321.713 104.687 319.998 104.687C318.329 104.687 316.8 105.081 315.409 105.869C314.065 106.61 312.953 107.676 312.072 109.067C311.238 110.411 310.728 112.01 310.542 113.864ZM366.833 106.633C364.006 106.633 361.479 107.19 359.255 108.302C357.03 109.368 355.431 110.921 354.457 112.96V135H345.141V98.5684H353.693V106.355C354.99 103.852 356.636 101.882 358.629 100.446C360.622 99.0087 362.731 98.2208 364.956 98.0817C365.466 98.0817 365.86 98.0817 366.138 98.0817C366.416 98.0817 366.648 98.1049 366.833 98.1513V106.633ZM388.795 135.695C385.875 135.695 383.233 135.209 380.869 134.235C378.505 133.216 376.489 131.848 374.82 130.133C373.152 128.372 371.854 126.379 370.927 124.154C370.046 121.883 369.606 119.496 369.606 116.993C369.606 113.516 370.371 110.341 371.9 107.468C373.476 104.594 375.701 102.3 378.575 100.585C381.495 98.8233 384.925 97.9427 388.864 97.9427C392.851 97.9427 396.257 98.8233 399.085 100.585C401.912 102.3 404.067 104.594 405.551 107.468C407.08 110.295 407.845 113.354 407.845 116.645C407.845 117.201 407.822 117.781 407.776 118.383C407.729 118.94 407.683 119.403 407.636 119.774H379.478C379.664 121.628 380.197 123.25 381.078 124.641C382.005 126.031 383.163 127.097 384.554 127.839C385.991 128.534 387.52 128.882 389.143 128.882C390.997 128.882 392.735 128.441 394.357 127.561C396.026 126.634 397.161 125.429 397.764 123.945L405.759 126.17C404.879 128.024 403.604 129.67 401.935 131.107C400.313 132.543 398.39 133.679 396.165 134.513C393.94 135.301 391.483 135.695 388.795 135.695ZM379.27 113.864H398.32C398.135 112.01 397.602 110.411 396.721 109.067C395.887 107.676 394.774 106.61 393.384 105.869C391.993 105.081 390.44 104.687 388.725 104.687C387.057 104.687 385.527 105.081 384.137 105.869C382.793 106.61 381.68 107.676 380.799 109.067C379.965 110.411 379.455 112.01 379.27 113.864ZM447.727 135H438.411V114.559C438.411 111.639 437.901 109.507 436.881 108.163C435.862 106.819 434.448 106.147 432.64 106.147C431.389 106.147 430.114 106.471 428.816 107.12C427.565 107.769 426.429 108.673 425.41 109.832C424.39 110.944 423.648 112.242 423.185 113.725V135H413.868V98.5684H422.281V105.312C423.208 103.737 424.39 102.416 425.827 101.349C427.264 100.237 428.909 99.4027 430.763 98.8465C432.663 98.244 434.657 97.9427 436.742 97.9427C439.013 97.9427 440.868 98.3598 442.304 99.1941C443.788 99.9821 444.9 101.071 445.642 102.462C446.43 103.806 446.963 105.336 447.241 107.051C447.565 108.766 447.727 110.504 447.727 112.265V135ZM473.14 135.695C470.174 135.695 467.509 135.209 465.145 134.235C462.781 133.216 460.765 131.825 459.096 130.064C457.427 128.256 456.13 126.217 455.203 123.945C454.322 121.674 453.882 119.287 453.882 116.784C453.882 113.354 454.646 110.226 456.176 107.398C457.752 104.524 459.977 102.23 462.85 100.515C465.724 98.8002 469.131 97.9427 473.071 97.9427C477.01 97.9427 480.394 98.8002 483.221 100.515C486.049 102.23 488.158 104.478 489.548 107.259L480.44 110.04C479.652 108.696 478.61 107.676 477.312 106.981C476.014 106.239 474.577 105.869 473.001 105.869C471.24 105.869 469.618 106.332 468.134 107.259C466.697 108.14 465.562 109.414 464.728 111.083C463.893 112.705 463.476 114.606 463.476 116.784C463.476 118.916 463.893 120.817 464.728 122.485C465.608 124.108 466.767 125.405 468.204 126.379C469.641 127.306 471.24 127.769 473.001 127.769C474.114 127.769 475.156 127.584 476.13 127.213C477.15 126.842 478.053 126.332 478.841 125.684C479.629 125.035 480.209 124.293 480.579 123.459L489.687 126.24C488.853 128.047 487.625 129.67 486.003 131.107C484.427 132.543 482.549 133.679 480.371 134.513C478.239 135.301 475.829 135.695 473.14 135.695ZM495.768 135V98.5684H505.084V135H495.768ZM495.768 93.493V84.2461H505.084V93.493H495.768ZM547.695 135H538.379V114.559C538.379 111.639 537.869 109.507 536.849 108.163C535.83 106.819 534.416 106.147 532.608 106.147C531.357 106.147 530.082 106.471 528.784 107.12C527.533 107.769 526.397 108.673 525.378 109.832C524.358 110.944 523.616 112.242 523.153 113.725V135H513.836V98.5684H522.249V105.312C523.176 103.737 524.358 102.416 525.795 101.349C527.232 100.237 528.877 99.4027 530.731 98.8465C532.631 98.244 534.624 97.9427 536.71 97.9427C538.981 97.9427 540.835 98.3598 542.272 99.1941C543.756 99.9821 544.868 101.071 545.61 102.462C546.398 103.806 546.931 105.336 547.209 107.051C547.533 108.766 547.695 110.504 547.695 112.265V135ZM570.397 135.209C567.986 135.209 565.762 134.745 563.722 133.818C561.729 132.845 559.991 131.501 558.508 129.786C557.071 128.071 555.958 126.101 555.17 123.876C554.383 121.651 553.989 119.287 553.989 116.784C553.989 114.142 554.406 111.686 555.24 109.414C556.074 107.143 557.233 105.15 558.716 103.435C560.246 101.674 562.03 100.33 564.07 99.4027C566.156 98.4294 568.45 97.9427 570.953 97.9427C573.78 97.9427 576.26 98.5916 578.392 99.8894C580.524 101.141 582.286 102.833 583.676 104.965V98.5684H591.811V133.262C591.811 136.877 590.93 139.96 589.169 142.509C587.454 145.104 585.067 147.074 582.007 148.419C578.948 149.809 575.472 150.504 571.579 150.504C567.639 150.504 564.302 149.832 561.567 148.488C558.832 147.19 556.491 145.336 554.545 142.926L559.62 137.99C561.011 139.705 562.749 141.049 564.835 142.022C566.967 142.995 569.215 143.482 571.579 143.482C573.572 143.482 575.379 143.111 577.002 142.37C578.67 141.674 579.991 140.562 580.965 139.033C581.984 137.549 582.494 135.626 582.494 133.262V128.673C581.289 130.759 579.574 132.381 577.349 133.54C575.171 134.652 572.853 135.209 570.397 135.209ZM573.525 127.769C574.545 127.769 575.518 127.607 576.445 127.283C577.372 126.958 578.23 126.518 579.018 125.962C579.806 125.405 580.501 124.757 581.104 124.015C581.706 123.227 582.17 122.439 582.494 121.651V112.96C581.938 111.523 581.15 110.272 580.13 109.206C579.157 108.14 578.045 107.329 576.793 106.772C575.588 106.17 574.313 105.869 572.969 105.869C571.532 105.869 570.234 106.17 569.076 106.772C567.917 107.375 566.92 108.233 566.086 109.345C565.252 110.411 564.603 111.616 564.139 112.96C563.722 114.258 563.514 115.625 563.514 117.062C563.514 118.546 563.769 119.936 564.278 121.234C564.788 122.532 565.484 123.667 566.364 124.641C567.291 125.614 568.357 126.379 569.562 126.935C570.814 127.491 572.135 127.769 573.525 127.769Z" fill="#CECECE"/>
</svg>
