<svg width="147" height="146" viewBox="0 0 147 146" fill="none" xmlns="http://www.w3.org/2000/svg">
<g clip-path="url(#clip0_2938_1554)">
<path d="M97.066 128.194C96.9043 127.903 96.799 127.534 96.7501 127.089C96.7012 126.643 96.7644 126.166 96.9396 125.657C97.1031 125.155 97.4091 124.634 97.8576 124.096C98.3125 123.569 98.9598 123.073 99.7993 122.607C100.476 122.232 101.136 121.98 101.781 121.851C102.421 121.74 102.998 121.695 103.512 121.714C104.109 121.719 104.667 121.79 105.187 121.929L105.34 124.268C105.348 124.31 105.35 124.354 105.346 124.402C105.32 124.493 105.266 124.561 105.185 124.606C104.916 124.755 104.673 124.783 104.454 124.691C104.224 124.605 103.997 124.457 103.773 124.246C103.555 124.046 103.331 123.82 103.099 123.567C102.874 123.326 102.626 123.113 102.355 122.928C102.08 122.76 101.78 122.66 101.456 122.626C101.133 122.592 100.761 122.691 100.341 122.924C99.7464 123.254 99.3828 123.684 99.2503 124.215C99.1179 124.746 99.181 125.245 99.4396 125.711C99.7889 126.341 100.21 126.77 100.703 127C101.197 127.23 101.727 127.362 102.296 127.397C102.864 127.433 103.452 127.42 104.058 127.358C104.67 127.308 105.268 127.312 105.849 127.371C106.437 127.441 106.994 127.62 107.519 127.908C108.045 128.196 108.505 128.696 108.899 129.407C109.468 130.433 109.548 131.456 109.138 132.476C108.728 133.496 107.818 134.398 106.407 135.18C105.707 135.568 105.043 135.815 104.415 135.919C103.793 136.035 103.244 136.089 102.766 136.079C102.204 136.055 101.681 135.964 101.196 135.806L101.043 133.467C101.035 133.426 101.042 133.384 101.064 133.341C101.072 133.245 101.134 133.165 101.251 133.1C101.566 132.925 101.861 132.868 102.139 132.928C102.416 132.988 102.686 133.104 102.95 133.278C103.214 133.452 103.471 133.653 103.719 133.881C103.962 134.127 104.21 134.34 104.463 134.52C104.715 134.701 104.974 134.824 105.239 134.89C105.493 134.963 105.766 134.918 106.057 134.757C106.605 134.453 106.896 134.002 106.931 133.403C106.965 132.805 106.807 132.191 106.458 131.561C106.167 131.037 105.784 130.677 105.311 130.482C104.832 130.306 104.308 130.2 103.739 130.165C103.166 130.147 102.569 130.158 101.95 130.196C101.319 130.241 100.707 130.223 100.113 130.141C99.5129 130.077 98.9504 129.901 98.4248 129.613C97.8875 129.332 97.4346 128.859 97.066 128.194Z" fill="#2B2B2B"/>
<path d="M87.9505 127.418C88.9177 127.115 89.8455 127 90.734 127.072C91.6097 127.147 92.419 127.39 93.1619 127.801C93.8921 128.215 94.5327 128.79 95.0839 129.526C95.6391 130.275 96.0797 131.171 96.4058 132.214C96.7477 133.309 96.8972 134.324 96.8542 135.259C96.7985 136.198 96.5865 137.04 96.2182 137.784C95.8499 138.527 95.336 139.163 94.6766 139.69C94.0085 140.234 93.2289 140.645 92.3381 140.924C91.3327 141.238 90.3985 141.355 89.5355 141.276C88.6725 141.196 87.8552 140.927 87.0837 140.47L87.4059 138.148C87.4067 138.106 87.4222 138.066 87.4525 138.029C87.4795 137.937 87.5567 137.871 87.6839 137.831C88.0276 137.724 88.3163 137.731 88.5501 137.854C88.784 137.976 88.9936 138.155 89.1789 138.391C89.3642 138.626 89.5447 138.891 89.7205 139.185C89.8835 139.484 90.0641 139.748 90.2621 139.98C90.4602 140.211 90.6888 140.384 90.9481 140.499C91.2074 140.613 91.528 140.611 91.9098 140.492C92.4188 140.333 92.8297 140.016 93.1423 139.541C93.4549 139.066 93.6745 138.495 93.801 137.826C93.9275 137.158 93.9625 136.421 93.9061 135.614C93.8409 134.825 93.683 134.029 93.4325 133.227C93.1343 132.273 92.7577 131.447 92.3027 130.751C91.8391 130.072 91.3475 129.527 90.8282 129.117C90.3 128.723 89.7695 128.456 89.2366 128.315C88.7077 128.187 88.2205 128.192 87.775 128.332C87.406 128.447 87.1518 128.617 87.0126 128.842C86.8734 129.067 86.7907 129.317 86.7644 129.59C86.7294 129.881 86.7322 130.18 86.7727 130.489C86.8133 130.797 86.8268 131.086 86.8133 131.356C86.791 131.642 86.7166 131.896 86.5901 132.117C86.4636 132.338 86.2286 132.503 85.885 132.61C85.8213 132.63 85.7665 132.633 85.7203 132.619C85.6654 132.623 85.6213 132.615 85.5879 132.598C85.5378 132.572 85.5004 132.541 85.4758 132.507L83.9081 130.776C84.282 129.961 84.801 129.275 85.4652 128.718C86.1166 128.165 86.9451 127.732 87.9505 127.418Z" fill="#2B2B2B"/>
<path d="M84.2705 142.752L81.0863 143.069L80.9514 141.716C80.7403 142.286 80.4058 142.695 79.948 142.941C79.4782 143.203 78.9448 143.363 78.3478 143.422C77.6579 143.491 77.031 143.453 76.4672 143.308C75.8901 143.165 75.398 142.932 74.9908 142.611C74.5704 142.291 74.2355 141.889 73.9863 141.405C73.7251 140.935 73.5648 140.402 73.5053 139.805C73.422 138.969 73.5875 138.209 74.0017 137.524C74.4172 136.853 75.043 136.275 75.879 135.79L72.438 130.907C72.2669 130.669 72.2432 130.43 72.3666 130.19C72.4914 129.963 72.6998 129.835 72.9917 129.806L75.0415 129.602L78.6476 134.73C79.1332 134.628 79.6599 134.535 80.2278 134.452L79.8016 130.173C79.7698 129.855 79.831 129.594 79.9849 129.391C80.1257 129.189 80.3419 129.074 80.6338 129.045L82.8827 128.821L84.2705 142.752ZM80.2694 134.87C79.6896 134.968 79.1648 135.147 78.6951 135.409C78.2253 135.67 77.8358 135.997 77.5265 136.389C77.204 136.783 76.967 137.229 76.8156 137.726C76.6655 138.237 76.6188 138.778 76.6757 139.348C76.7973 140.569 77.0862 141.451 77.5423 141.995C77.9866 142.554 78.494 142.805 79.0645 142.748C79.2767 142.727 79.497 142.651 79.7253 142.521C79.9548 142.405 80.1512 142.224 80.3145 141.98C80.4778 141.736 80.6073 141.422 80.7029 141.037C80.7867 140.667 80.8014 140.21 80.7472 139.666L80.2694 134.87Z" fill="#2B2B2B"/>
<path d="M70.8504 136.833C70.734 137.799 70.4526 138.685 70.0064 139.491C69.5469 140.295 68.9744 140.978 68.2889 141.54C67.5901 142.101 66.8081 142.517 65.9427 142.788C65.0641 143.059 64.1482 143.136 63.1951 143.021C62.242 142.907 61.3774 142.614 60.6013 142.145C59.812 141.674 59.1512 141.084 58.6188 140.375C58.0732 139.665 57.6794 138.865 57.4373 137.976C57.1819 137.086 57.1125 136.158 57.2289 135.191C57.347 134.212 57.6365 133.313 58.0976 132.496C58.5455 131.677 59.1196 130.981 59.8199 130.407C60.5054 129.845 61.2874 129.429 62.1661 129.159C63.0315 128.887 63.9407 128.809 64.8938 128.923C65.8469 129.038 66.7181 129.331 67.5074 129.802C68.2835 130.272 68.9443 130.862 69.4899 131.572C70.0207 132.294 70.413 133.107 70.6667 134.011C70.9072 134.912 70.9684 135.853 70.8504 136.833ZM67.6614 136.549C67.7763 135.596 67.8177 134.695 67.7859 133.845C67.7391 133.006 67.6068 132.265 67.389 131.621C67.1711 130.977 66.8513 130.455 66.4294 130.055C66.0076 129.655 65.479 129.417 64.8436 129.34C64.2082 129.264 63.6381 129.37 63.1333 129.658C62.6285 129.946 62.1938 130.377 61.8292 130.951C61.4646 131.525 61.1667 132.214 60.9354 133.019C60.6893 133.836 60.5088 134.72 60.394 135.674C60.2871 136.56 60.2594 137.403 60.3109 138.202C60.3476 139.012 60.4765 139.726 60.6975 140.343C60.917 140.974 61.2376 141.49 61.6595 141.89C62.0813 142.29 62.6099 142.528 63.2453 142.604C63.8807 142.681 64.4508 142.575 64.9556 142.287C65.4604 141.998 65.8943 141.574 66.2573 141.013C66.6187 140.466 66.9201 139.804 67.1614 139.027C67.3879 138.262 67.5546 137.436 67.6614 136.549Z" fill="#2B2B2B"/>
<path d="M53.5753 140.998L50.5466 139.965L54.9302 127.112L54.8166 127.073C54.0216 126.802 53.2846 126.67 52.6057 126.678C51.9142 126.682 51.315 126.745 50.8082 126.868C50.2296 126.995 49.6907 127.191 49.1913 127.458L50.0305 124.997L58.0945 127.747L53.5753 140.998Z" fill="#2B2B2B"/>
<path d="M41.8329 136.524L39.0341 134.973L45.6177 123.095L45.5128 123.037C44.7781 122.63 44.0759 122.37 43.4063 122.258C42.7249 122.14 42.124 122.096 41.6034 122.128C41.0116 122.151 40.4464 122.249 39.9078 122.423L41.1683 120.149L48.6201 124.279L41.8329 136.524Z" fill="#2B2B2B"/>
<path d="M30.9847 117.116L29.2549 118.837L25.5592 115.122L27.289 113.401L30.9847 117.116Z" fill="#2B2B2B"/>
<path d="M16.9795 96.1324C17.2735 95.9754 17.6437 95.876 18.0899 95.8341C18.5362 95.7923 19.0123 95.863 19.5183 96.0462C20.018 96.2177 20.5335 96.5319 21.0647 96.9889C21.5842 97.4521 22.0701 98.1071 22.5223 98.9539C22.8867 99.636 23.1282 100.301 23.247 100.948C23.3478 101.589 23.3842 102.167 23.3563 102.68C23.3425 103.277 23.2621 103.834 23.1149 104.351L20.7738 104.468C20.7323 104.475 20.6876 104.476 20.6397 104.471C20.5495 104.444 20.4824 104.389 20.4384 104.307C20.294 104.036 20.2695 103.792 20.3651 103.575C20.4543 103.346 20.6064 103.121 20.8211 102.901C21.0242 102.687 21.2538 102.466 21.5102 102.238C21.7547 102.017 21.9718 101.772 22.1615 101.505C22.3331 101.232 22.4384 100.934 22.4774 100.61C22.5165 100.287 22.4229 99.9139 22.1968 99.4905C21.8764 98.8907 21.4519 98.5204 20.9232 98.3795C20.3945 98.2387 19.8949 98.2939 19.4245 98.5451C18.7894 98.8843 18.3531 99.2987 18.1158 99.7882C17.8784 100.278 17.7376 100.806 17.6932 101.374C17.6488 101.942 17.6527 102.53 17.7048 103.137C17.7452 103.75 17.7314 104.347 17.6635 104.927C17.5839 105.514 17.3959 106.068 17.0998 106.589C16.8036 107.11 16.2968 107.562 15.5794 107.945C14.5444 108.498 13.5202 108.561 12.5066 108.135C11.493 107.709 10.6062 106.784 9.84612 105.361C9.46923 104.656 9.23354 103.988 9.13905 103.358C9.0328 102.735 8.98817 102.184 9.00514 101.707C9.03775 101.145 9.13705 100.623 9.30304 100.142L11.6442 100.025C11.6857 100.018 11.7277 100.026 11.77 100.048C11.8657 100.058 11.945 100.121 12.0078 100.239C12.1774 100.556 12.2301 100.853 12.166 101.129C12.1018 101.406 11.9808 101.674 11.8029 101.935C11.625 102.197 11.4201 102.45 11.1881 102.695C10.938 102.934 10.7209 103.178 10.5367 103.428C10.3526 103.678 10.2253 103.934 10.1548 104.199C10.0781 104.451 10.1183 104.725 10.2753 105.019C10.5706 105.572 11.017 105.87 11.6147 105.913C12.2123 105.957 12.8287 105.809 13.4638 105.47C13.9931 105.187 14.3587 104.81 14.5608 104.34C14.7448 103.864 14.859 103.342 14.9034 102.774C14.9297 102.2 14.9286 101.604 14.9 100.984C14.8651 100.353 14.8934 99.7407 14.9848 99.1477C15.0582 98.5493 15.243 97.9895 15.5391 97.4686C15.829 96.9359 16.3091 96.4905 16.9795 96.1324Z" fill="#2B2B2B"/>
<path d="M17.8978 87.0272C18.1847 87.9991 18.2852 88.9287 18.1995 89.8159C18.1101 90.6903 17.8543 91.4957 17.4321 92.2319C17.0061 92.9554 16.4209 93.5869 15.6765 94.1264C14.9193 94.6696 14.0164 95.096 12.9678 95.4055C11.8681 95.7301 10.8509 95.8634 9.91629 95.8056C8.97792 95.735 8.13986 95.5097 7.40211 95.1297C6.66435 94.7497 6.03707 94.2258 5.52026 93.5581C4.98689 92.8814 4.58811 92.0955 4.32391 91.2003C4.02573 90.1901 3.92327 89.2541 4.01651 88.3925C4.10975 87.5309 4.39115 86.718 4.8607 85.9538L7.17706 86.3128C7.2192 86.3142 7.25872 86.3304 7.29562 86.3612C7.38745 86.3897 7.45223 86.4679 7.48997 86.5958C7.59188 86.941 7.57974 87.2296 7.45355 87.4615C7.32735 87.6934 7.14508 87.9001 6.90673 88.0816C6.66838 88.2632 6.40067 88.4395 6.10362 88.6106C5.80279 88.7689 5.53509 88.9452 5.30051 89.1396C5.06593 89.3339 4.88932 89.5598 4.77068 89.8173C4.65204 90.0747 4.64933 90.3953 4.76256 90.7789C4.91353 91.2904 5.22393 91.7062 5.69376 92.0263C6.16359 92.3464 6.73152 92.575 7.39756 92.7121C8.06361 92.8492 8.80029 92.8959 9.60762 92.8522C10.3984 92.7995 11.1966 92.6543 12.0022 92.4165C12.9613 92.1335 13.7924 91.77 14.4956 91.3261C15.1821 90.8733 15.7347 90.3904 16.1533 89.8776C16.5554 89.3558 16.831 88.8296 16.9803 88.299C17.1167 87.7721 17.1189 87.2849 16.9868 86.8373C16.8773 86.4665 16.7112 86.2097 16.4883 86.0669C16.2655 85.9242 16.0175 85.8375 15.7443 85.8069C15.4546 85.7673 15.1551 85.7653 14.8459 85.801C14.5366 85.8367 14.2473 85.8456 13.9779 85.8278C13.692 85.801 13.4395 85.7226 13.2204 85.5926C13.0013 85.4626 12.8408 85.225 12.7389 84.8797C12.72 84.8158 12.7177 84.7609 12.732 84.715C12.7297 84.66 12.7375 84.616 12.7556 84.5829C12.7826 84.5332 12.8134 84.4963 12.848 84.4722L14.6039 82.9322C15.4131 83.3189 16.0908 83.8487 16.637 84.5217C17.1794 85.1818 17.5996 86.017 17.8978 87.0272Z" fill="#2B2B2B"/>
<path d="M2.62585 83.1145L2.35913 79.9257L3.7144 79.8123C3.1474 79.5922 2.74425 79.2512 2.50494 78.7896C2.25123 78.3157 2.09937 77.7799 2.04936 77.182C1.99157 76.491 2.03954 75.8649 2.19328 75.3034C2.34591 74.7287 2.58603 74.2403 2.91366 73.8383C3.24018 73.423 3.64756 73.0945 4.13579 72.853C4.60963 72.5993 5.1455 72.4474 5.74341 72.3974C6.58049 72.3274 7.33792 72.5049 8.0157 72.9299C8.68019 73.356 9.24842 73.9908 9.72038 74.8344L14.6572 71.4712C14.8975 71.3039 15.1366 71.2839 15.3747 71.4112C15.5995 71.5396 15.7242 71.7499 15.7486 72.0422L15.9203 74.095L10.736 77.6194C10.8303 78.1066 10.9146 78.6347 10.989 79.2039L15.274 78.8454C15.5929 78.8188 15.8526 78.884 16.0531 79.0412C16.2524 79.1851 16.3643 79.4032 16.3888 79.6955L16.5771 81.9476L2.62585 83.1145ZM10.5705 79.2389C10.4817 78.6576 10.3105 78.13 10.0567 77.6562C9.80304 77.1823 9.48236 76.7877 9.09472 76.4722C8.70596 76.1435 8.26409 75.8995 7.76909 75.7402C7.2608 75.582 6.72099 75.5268 6.14965 75.5746C4.92725 75.6768 4.04041 75.9517 3.48912 76.3992C2.92344 76.8346 2.66449 77.3379 2.71228 77.9092C2.73006 78.1218 2.8021 78.3433 2.9284 78.5735C3.04142 78.8049 3.21864 79.0042 3.46008 79.1713C3.70152 79.3384 4.01381 79.4729 4.39696 79.5746C4.76571 79.6642 5.22246 79.6862 5.76723 79.6406L10.5705 79.2389Z" fill="#2B2B2B"/>
<path d="M8.75498 69.7839C7.7906 69.6522 6.90913 69.3568 6.11057 68.8978C5.31381 68.4257 4.63988 67.8424 4.08878 67.1481C3.53948 66.4406 3.13582 65.652 2.87781 64.7824C2.6216 63.8996 2.55846 62.9827 2.68838 62.0315C2.81831 61.0803 3.12417 60.2205 3.60595 59.4519C4.08953 58.6702 4.68989 58.0188 5.40701 57.4977C6.12593 56.9634 6.93159 56.5823 7.824 56.3543C8.7182 56.1131 9.64749 56.0584 10.6119 56.1901C11.5895 56.3237 12.4832 56.6274 13.2932 57.1014C14.105 57.5622 14.7921 58.1472 15.3546 58.8566C15.9057 59.5509 16.3094 60.3394 16.5656 61.2222C16.8236 62.0918 16.8877 63.0022 16.7577 63.9533C16.6278 64.9045 16.321 65.771 15.8375 66.5527C15.3557 67.3212 14.7553 67.9727 14.0364 68.5069C13.3061 69.0262 12.4872 69.4055 11.5798 69.6449C10.6742 69.8711 9.73257 69.9174 8.75498 69.7839ZM9.08899 66.5998C10.0402 66.7297 10.9409 66.7855 11.7912 66.7671C12.6301 66.7336 13.3733 66.6131 14.0207 66.4055C14.6681 66.1978 15.1951 65.8863 15.6017 65.4709C16.0083 65.0554 16.255 64.5306 16.3416 63.8965C16.4282 63.2624 16.3314 62.6907 16.051 62.1814C15.7707 61.6721 15.3466 61.2306 14.7786 60.857C14.2106 60.4834 13.5261 60.1745 12.7251 59.9305C11.9127 59.6715 11.0309 59.4771 10.0797 59.3471C9.19458 59.2262 8.35239 59.1852 7.55311 59.2241C6.74242 59.2479 6.0266 59.3654 5.40563 59.5767C4.77145 59.7861 4.25104 60.0985 3.8444 60.514C3.43777 60.9294 3.19114 61.4542 3.10452 62.0883C3.0179 62.7225 3.11475 63.2942 3.39507 63.8034C3.67539 64.3127 4.09293 64.7533 4.64771 65.1251C5.18928 65.4952 5.84646 65.807 6.61925 66.0606C7.38063 66.2992 8.20388 66.4789 9.08899 66.5998Z" fill="#2B2B2B"/>
<path d="M4.87466 52.4333L5.95546 49.4214L18.7374 54.008L18.778 53.8951C19.0617 53.1044 19.2049 52.3696 19.2078 51.6907C19.2151 50.9992 19.1613 50.3991 19.0463 49.8904C18.9288 49.3099 18.7408 48.7679 18.4824 48.2644L20.9296 49.1425L18.052 57.1618L4.87466 52.4333Z" fill="#2B2B2B"/>
<path d="M9.52273 40.7706L11.1182 37.9968L22.8898 44.7677L22.9497 44.6637C23.3685 43.9356 23.6392 43.2376 23.7618 42.5698C23.8911 41.8905 23.9441 41.2903 23.9207 40.7693C23.9075 40.1772 23.8182 39.6105 23.6527 39.0692L25.9065 40.3656L21.6584 47.751L9.52273 40.7706Z" fill="#2B2B2B"/>
<path d="M29.1038 30.2323L27.4105 28.4755L31.1834 24.8391L32.8767 26.5959L29.1038 30.2323Z" fill="#2B2B2B"/>
<path d="M50.3052 16.5577C50.4576 16.8542 50.5511 17.2259 50.5859 17.6727C50.6206 18.1196 50.5424 18.5945 50.3512 19.0976C50.1718 19.5945 49.8495 20.1049 49.3842 20.6289C48.9128 21.141 48.2502 21.6164 47.3963 22.0552C46.7085 22.4087 46.0402 22.6397 45.3914 22.7482C44.7484 22.8388 44.1702 22.8661 43.657 22.83C43.0604 22.8068 42.5049 22.7175 41.9903 22.5622L41.9107 20.2195C41.9043 20.1779 41.9038 20.1332 41.9093 20.0854C41.9381 19.9956 41.994 19.9294 42.077 19.8868C42.3498 19.7466 42.594 19.726 42.8098 19.825C43.0374 19.9179 43.2598 20.0734 43.4769 20.2917C43.6879 20.4981 43.9051 20.7312 44.1286 20.9911C44.3461 21.2392 44.587 21.4601 44.8516 21.654C45.1218 21.8299 45.4182 21.9399 45.7407 21.9841C46.0632 22.0282 46.438 21.9406 46.8649 21.7212C47.4697 21.4104 47.8467 20.9917 47.9959 20.4653C48.1452 19.9389 48.0979 19.4385 47.8541 18.9642C47.525 18.3238 47.1176 17.881 46.6319 17.636C46.1461 17.3909 45.6197 17.2417 45.0526 17.1883C44.4855 17.1349 43.8981 17.1295 43.2903 17.172C42.6764 17.2026 42.0799 17.1794 41.5006 17.1023C40.9152 17.0134 40.3644 16.8167 39.8482 16.5124C39.332 16.208 38.888 15.6941 38.5163 14.9707C37.98 13.9271 37.9329 12.9019 38.3749 11.8952C38.817 10.8885 39.7555 10.0165 41.1905 9.27905C41.902 8.91339 42.5734 8.68831 43.2045 8.60381C43.8296 8.50745 44.3808 8.47154 44.8581 8.49608C45.4191 8.53758 45.9391 8.64513 46.4181 8.81873L46.4977 11.1614C46.5041 11.2031 46.4956 11.2449 46.4722 11.2869C46.4613 11.3824 46.3966 11.4607 46.278 11.5216C45.9578 11.6862 45.6602 11.7342 45.3851 11.6657C45.1101 11.5971 44.8433 11.4719 44.5849 11.2899C44.3265 11.1079 44.0767 10.899 43.8355 10.6631C43.6002 10.4093 43.3592 10.1883 43.1126 10.0002C42.8661 9.81212 42.6112 9.68077 42.348 9.60616C42.0966 9.52545 41.8227 9.56128 41.5262 9.71364C40.9689 10.0001 40.6636 10.4417 40.6106 11.0386C40.5576 11.6356 40.6956 12.2542 41.0247 12.8946C41.299 13.4282 41.6698 13.7998 42.1372 14.0093C42.6105 14.2009 43.1306 14.3233 43.6977 14.3767C44.2706 14.4121 44.867 14.4204 45.4869 14.4017C46.1188 14.3768 46.7304 14.4147 47.3219 14.5155C47.9191 14.5984 48.4759 14.792 48.9921 15.0964C49.5201 15.3947 49.9578 15.8818 50.3052 16.5577Z" fill="#2B2B2B"/>
<path d="M59.4011 17.6317C58.4248 17.9031 57.4938 17.9889 56.608 17.8892C55.7351 17.7859 54.9339 17.5174 54.2044 17.0836C53.4877 16.6462 52.8656 16.0511 52.338 15.2982C51.8069 14.5325 51.3948 13.623 51.102 12.5696C50.7949 11.4648 50.6776 10.4457 50.7502 9.51211C50.8357 8.57498 51.0742 7.74059 51.4659 7.00895C51.8576 6.27731 52.3913 5.65841 53.0671 5.15224C53.7522 4.62966 54.5443 4.24337 55.4435 3.99338C56.4584 3.71125 57.3958 3.62363 58.2559 3.73051C59.1159 3.83739 59.9243 4.13163 60.6809 4.61323L60.2853 6.92361C60.2832 6.96572 60.2664 7.00498 60.235 7.04139C60.205 7.13275 60.1258 7.19629 59.9974 7.232C59.6505 7.32842 59.3622 7.31171 59.1323 7.18186C58.9025 7.05201 58.6987 6.86649 58.5209 6.62529C58.3432 6.38409 58.1711 6.11363 58.0047 5.8139C57.8512 5.5106 57.6792 5.24014 57.4886 5.00251C57.2979 4.76488 57.0749 4.58472 56.8193 4.46201C56.5638 4.3393 56.2433 4.33152 55.858 4.43866C55.3441 4.58151 54.9234 4.88528 54.5959 5.34998C54.2684 5.81468 54.0309 6.37892 53.8833 7.04271C53.7357 7.70649 53.6773 8.44235 53.7082 9.25027C53.7483 10.0418 53.8809 10.8422 54.1058 11.6515C54.3737 12.615 54.7239 13.4517 55.1566 14.1618C55.5985 14.8554 56.0726 15.4156 56.5787 15.8423C57.0941 16.2526 57.6159 16.5365 58.144 16.6941C58.6687 16.8389 59.1558 16.8488 59.6054 16.7238C59.9779 16.6202 60.2373 16.4582 60.3836 16.2376C60.5299 16.017 60.6204 15.7704 60.6554 15.4978C60.6995 15.2087 60.7063 14.9093 60.6755 14.5996C60.6448 14.2898 60.6404 14.0004 60.6625 13.7313C60.6938 13.4458 60.7762 13.1946 60.9096 12.9776C61.0431 12.7606 61.2832 12.6039 61.63 12.5075C61.6943 12.4896 61.7492 12.4882 61.7949 12.5031C61.8499 12.5017 61.8938 12.5103 61.9266 12.5288C61.9758 12.5566 62.0122 12.588 62.0358 12.623L63.5478 14.403C63.1483 15.2061 62.6078 15.8753 61.9263 16.4107C61.2577 16.9426 60.4159 17.3496 59.4011 17.6317Z" fill="#2B2B2B"/>
<path d="M63.5609 2.40168L66.7536 2.18551L66.8455 3.5424C67.0746 2.97897 67.4218 2.58127 67.8872 2.3493C68.365 2.10312 68.9032 1.95977 69.5019 1.91924C70.1936 1.8724 70.819 1.93029 71.3779 2.0929C71.9501 2.25462 72.4346 2.50245 72.8314 2.83641C73.2415 3.16947 73.5635 3.58199 73.7972 4.07399C74.0434 4.55179 74.1868 5.09 74.2273 5.68863C74.2841 6.52671 74.0946 7.28123 73.6589 7.9522C73.2224 8.60986 72.5786 9.16795 71.7276 9.62649L75.0122 14.616C75.1756 14.8588 75.1918 15.0983 75.0608 15.3344C74.9289 15.5571 74.7166 15.6784 74.4239 15.6982L72.3686 15.8374L68.9268 10.5979C68.4382 10.6845 67.9088 10.7604 67.3386 10.8257L67.6291 15.1159C67.6507 15.4352 67.5813 15.6938 67.421 15.8917C67.274 16.0888 67.0542 16.1972 66.7615 16.217L64.5066 16.3697L63.5609 2.40168ZM67.3102 10.4067C67.8929 10.3271 68.4231 10.1643 68.9009 9.91811C69.3787 9.67194 69.7783 9.35756 70.0999 8.97496C70.4347 8.59146 70.6857 8.15351 70.8528 7.66109C71.0191 7.15538 71.0828 6.61651 71.0441 6.04448C70.9612 4.82062 70.7004 3.92953 70.2617 3.37123C69.8354 2.79872 69.3362 2.53183 68.7642 2.57056C68.5513 2.58497 68.3288 2.6535 68.0965 2.77613C67.8634 2.88547 67.6614 3.05951 67.4904 3.29827C67.3195 3.53703 67.1801 3.84715 67.0723 4.22864C66.9769 4.59593 66.9477 5.05228 66.9846 5.59769L67.3102 10.4067Z" fill="#2B2B2B"/>
<path d="M76.779 8.77017C76.926 7.808 77.2353 6.93132 77.7069 6.14013C78.1916 5.35095 78.7854 4.68634 79.4884 4.14631C80.2045 3.60829 80.9994 3.21718 81.8729 2.97297C82.7597 2.73077 83.6776 2.68217 84.6265 2.82715C85.5755 2.97213 86.4304 3.29157 87.1912 3.78546C87.9652 4.28137 88.607 4.89197 89.1167 5.61725C89.6395 6.34455 90.0078 7.15615 90.2216 8.05205C90.4487 8.94997 90.4887 9.88001 90.3417 10.8422C90.1927 11.8175 89.8748 12.7064 89.388 13.5087C88.9144 14.3131 88.3186 14.9909 87.6004 15.5421C86.8975 16.0821 86.1026 16.4732 85.2159 16.7154C84.3423 16.9596 83.431 17.0093 82.4821 16.8643C81.5331 16.7193 80.6716 16.3989 79.8976 15.9029C79.1368 15.4091 78.495 14.7985 77.9721 14.0712C77.4645 13.3327 77.0982 12.5079 76.8732 11.5968C76.6614 10.6877 76.63 9.74552 76.779 8.77017ZM79.9574 9.15458C79.8124 10.1036 79.7424 11.0033 79.7474 11.8538C79.7675 12.6932 79.8763 13.4381 80.0736 14.0887C80.2709 14.7393 80.5741 15.2712 80.983 15.6844C81.392 16.0975 81.9128 16.3524 82.5455 16.4491C83.1781 16.5458 83.7513 16.458 84.265 16.1858C84.7786 15.9135 85.2268 15.4964 85.6094 14.9344C85.992 14.3724 86.3116 13.6929 86.5682 12.8959C86.8401 12.0876 87.0485 11.209 87.1935 10.2601C87.3284 9.37697 87.3827 8.53553 87.3566 7.73574C87.3456 6.92477 87.2394 6.20718 87.038 5.58294C86.8387 4.94552 86.5345 4.42023 86.1255 4.00706C85.7166 3.59389 85.1958 3.33898 84.5631 3.24233C83.9305 3.14568 83.3573 3.23346 82.8436 3.50567C82.33 3.77789 81.8828 4.1884 81.5023 4.73722C81.1237 5.27286 80.8015 5.92502 80.5357 6.69369C80.2851 7.4512 80.0923 8.2715 79.9574 9.15458Z" fill="#2B2B2B"/>
<path d="M94.1776 5.13716L97.172 6.26554L92.3835 18.9733L92.4957 19.0156C93.2818 19.3118 94.0142 19.4667 94.693 19.4802C95.3843 19.4985 95.9852 19.4542 96.4957 19.3473C97.0779 19.239 97.6229 19.0597 98.1304 18.8092L97.2136 21.2422L89.2409 18.2379L94.1776 5.13716Z" fill="#2B2B2B"/>
<path d="M105.776 9.98328L108.524 11.6225L101.568 23.2854L101.671 23.3469C102.392 23.7772 103.086 24.0589 103.752 24.1921C104.429 24.3321 105.028 24.3946 105.55 24.3795C106.142 24.3757 106.71 24.2953 107.254 24.1384L105.922 26.3714L98.6045 22.0068L105.776 9.98328Z" fill="#2B2B2B"/>
<path d="M116.006 29.7358L117.79 28.0705L121.366 31.9005L119.583 33.5658L116.006 29.7358Z" fill="#2B2B2B"/>
<path d="M129.338 51.1454C129.039 51.293 128.666 51.3807 128.219 51.4084C127.772 51.4361 127.298 51.3503 126.798 51.1511C126.304 50.9639 125.799 50.6335 125.282 50.16C124.778 49.6806 124.313 49.0105 123.888 48.1498C123.545 47.4564 123.325 46.7846 123.226 46.1341C123.146 45.4898 123.128 44.9113 123.172 44.3987C123.205 43.8025 123.303 43.2484 123.466 42.7364L125.81 42.694C125.852 42.6882 125.896 42.6884 125.944 42.6946C126.033 42.7249 126.099 42.7818 126.14 42.8655C126.276 43.1404 126.293 43.385 126.19 43.5992C126.094 43.8253 125.935 44.0452 125.713 44.2588C125.503 44.4665 125.267 44.68 125.003 44.8994C124.752 45.1128 124.527 45.3503 124.329 45.6117C124.149 45.8792 124.034 46.1738 123.985 46.4955C123.936 46.8173 124.017 47.1934 124.23 47.6237C124.531 48.2334 124.944 48.617 125.468 48.7745C125.992 48.9321 126.493 48.8927 126.971 48.6565C127.617 48.3376 128.066 47.9372 128.318 47.4554C128.571 46.9737 128.729 46.4497 128.791 45.8835C128.853 45.3173 128.868 44.73 128.835 44.1217C128.814 43.5074 128.847 42.9112 128.933 42.3333C129.031 41.7494 129.237 41.2018 129.549 40.6904C129.862 40.1791 130.383 39.7433 131.112 39.3831C132.164 38.8634 133.19 38.8325 134.189 39.2905C135.189 39.7485 136.046 40.7007 136.76 42.1471C137.115 42.8644 137.329 43.5392 137.404 44.1716C137.49 44.7981 137.517 45.3498 137.485 45.8267C137.435 46.387 137.319 46.9052 137.138 47.3814L134.794 47.4238C134.753 47.4296 134.711 47.4204 134.669 47.3964C134.574 47.384 134.497 47.318 134.438 47.1985C134.278 46.8757 134.235 46.5774 134.308 46.3034C134.381 46.0295 134.51 45.7648 134.696 45.5093C134.882 45.2537 135.095 45.0073 135.335 44.7699C135.592 44.5386 135.817 44.3012 136.009 44.0576C136.201 43.814 136.336 43.5613 136.415 43.2993C136.5 43.0492 136.468 42.7748 136.321 42.4759C136.043 41.9141 135.606 41.6019 135.01 41.5395C134.414 41.477 133.794 41.6052 133.148 41.9241C132.61 42.1899 132.233 42.5548 132.016 43.0188C131.817 43.489 131.686 44.0071 131.624 44.5733C131.579 45.1455 131.561 45.7417 131.57 46.3619C131.585 46.994 131.538 47.605 131.428 48.1948C131.335 48.7907 131.133 49.3442 130.82 49.8556C130.514 50.3788 130.02 50.8088 129.338 51.1454Z" fill="#2B2B2B"/>
<path d="M128.13 60.2252C127.874 59.2447 127.803 58.3124 127.917 57.4283C128.034 56.5572 128.315 55.7603 128.76 55.0378C129.209 54.3282 129.814 53.7155 130.575 53.1999C131.349 52.681 132.265 52.2834 133.323 52.0073C134.432 51.7177 135.453 51.6166 136.386 51.704C137.321 51.8043 138.152 52.056 138.877 52.4593C139.603 52.8625 140.213 53.4059 140.708 54.0897C141.22 54.7829 141.594 55.5811 141.829 56.4842C142.095 57.5034 142.168 58.4421 142.048 59.3003C141.927 60.1586 141.62 60.9622 141.127 61.7111L138.823 61.2789C138.781 61.2761 138.742 61.2587 138.706 61.2267C138.615 61.1953 138.553 61.1151 138.519 60.9861C138.428 60.6378 138.449 60.3497 138.583 60.122C138.716 59.8942 138.905 59.6934 139.149 59.5195C139.393 59.3455 139.666 59.1778 139.968 59.0162C140.274 58.8675 140.547 58.6998 140.788 58.5129C141.029 58.3261 141.212 58.1059 141.339 57.8524C141.466 57.5988 141.479 57.2785 141.378 56.8915C141.243 56.3754 140.946 55.95 140.486 55.6152C140.027 55.2803 139.466 55.0339 138.805 54.8758C138.144 54.7177 137.409 54.6477 136.601 54.6657C135.809 54.6933 135.006 54.8132 134.193 55.0253C133.226 55.2779 132.384 55.6148 131.667 56.0362C130.966 56.4671 130.399 56.9322 129.964 57.4314C129.546 57.9403 129.253 58.4575 129.087 58.9831C128.934 59.5054 128.917 59.9923 129.035 60.4438C129.132 60.8179 129.29 61.0799 129.508 61.2296C129.727 61.3794 129.972 61.4738 130.244 61.5131C130.532 61.5618 130.831 61.5733 131.142 61.5475C131.452 61.5216 131.741 61.5219 132.01 61.5482C132.295 61.584 132.545 61.6704 132.76 61.8072C132.975 61.9441 133.127 62.1867 133.218 62.535C133.235 62.5995 133.236 62.6545 133.22 62.6999C133.221 62.7549 133.211 62.7986 133.192 62.8312C133.164 62.88 133.132 62.9159 133.096 62.9389L131.293 64.4225C130.496 64.0103 129.835 63.4593 129.311 62.7694C128.79 62.0924 128.396 61.2443 128.13 60.2252Z" fill="#2B2B2B"/>
<path d="M143.272 64.6191L143.438 67.8148L142.08 67.8852C142.639 68.1232 143.031 68.4767 143.256 68.9457C143.495 69.4274 143.629 69.9678 143.66 70.567C143.696 71.2594 143.629 71.8837 143.457 72.44C143.286 73.0096 143.031 73.4901 142.691 73.8816C142.351 74.2864 141.934 74.6017 141.438 74.8277C140.956 75.0663 140.416 75.2011 139.817 75.2321C138.978 75.2756 138.226 75.0742 137.562 74.6279C136.912 74.181 136.364 73.5285 135.919 72.6703L130.878 75.8755C130.633 76.035 130.393 76.0475 130.159 75.9127C129.938 75.7773 129.82 75.5631 129.805 75.2702L129.699 73.2129L134.992 69.8545C134.913 69.3646 134.846 68.8341 134.789 68.2629L130.495 68.4854C130.176 68.5019 129.918 68.4285 129.723 68.265C129.528 68.1149 129.423 67.8934 129.408 67.6004L129.291 65.3435L143.272 64.6191ZM135.209 68.2412C135.279 68.825 135.434 69.3577 135.672 69.8393C135.911 70.321 136.219 70.7256 136.596 71.0531C136.974 71.394 137.408 71.6519 137.898 71.8268C138.401 72.001 138.939 72.0733 139.511 72.0436C140.736 71.9802 141.631 71.7335 142.197 71.3037C142.776 70.8865 143.051 70.3916 143.021 69.8191C143.01 69.606 142.945 69.3824 142.826 69.1483C142.72 68.9134 142.55 68.7086 142.313 68.534C142.077 68.3593 141.77 68.215 141.39 68.1012C141.024 68 140.568 67.9635 140.022 67.9918L135.209 68.2412Z" fill="#2B2B2B"/>
<path d="M136.721 77.7485C137.68 77.9107 138.552 78.2339 139.336 78.7179C140.117 79.2151 140.772 79.8194 141.301 80.5308C141.828 81.2554 142.206 82.0563 142.437 82.9336C142.665 83.8241 142.699 84.7426 142.539 85.6892C142.379 86.6358 142.046 87.4855 141.54 88.2384C141.032 89.0044 140.411 89.6365 139.678 90.1346C138.942 90.6458 138.125 91.0012 137.226 91.2008C136.324 91.4136 135.394 91.4388 134.434 91.2766C133.461 91.1122 132.578 90.7803 131.783 90.2809C130.986 89.7946 130.318 89.1881 129.778 88.4613C129.249 87.7499 128.871 86.9489 128.643 86.0584C128.412 85.1811 128.377 84.2692 128.537 83.3226C128.697 82.376 129.031 81.5197 129.539 80.7537C130.045 80.0008 130.666 79.3687 131.402 78.8575C132.148 78.3616 132.978 78.0084 133.893 77.7979C134.805 77.6005 135.748 77.5841 136.721 77.7485ZM136.286 80.9204C135.339 80.7604 134.441 80.6762 133.59 80.6676C132.751 80.6745 132.004 80.7714 131.351 80.9584C130.697 81.1454 130.16 81.4401 129.741 81.8425C129.321 82.2448 129.058 82.7616 128.951 83.3926C128.845 84.0236 128.923 84.5981 129.188 85.116C129.452 85.634 129.862 86.0886 130.417 86.4801C130.973 86.8715 131.648 87.2019 132.441 87.4711C133.244 87.7557 134.12 87.9781 135.066 88.138C135.947 88.2869 136.787 88.3546 137.588 88.3411C138.399 88.343 139.118 88.2482 139.745 88.0567C140.386 87.8675 140.916 87.5717 141.335 87.1693C141.755 86.767 142.018 86.2503 142.125 85.6192C142.231 84.9882 142.153 84.4137 141.889 83.8958C141.624 83.3778 141.221 82.9243 140.678 82.535C140.149 82.148 139.502 81.8156 138.737 81.5376C137.984 81.275 137.167 81.0693 136.286 80.9204Z" fill="#2B2B2B"/>
<path d="M140.054 95.2105L138.878 98.1867L126.248 93.1974L126.204 93.309C125.895 94.0903 125.729 94.8202 125.705 95.4987C125.675 96.1896 125.71 96.7911 125.809 97.3032C125.908 97.8871 126.079 98.4348 126.321 98.9463L123.903 97.9911L127.033 90.0669L140.054 95.2105Z" fill="#2B2B2B"/>
<path d="M135.037 106.722L133.354 109.444L121.803 102.303L121.74 102.405C121.299 103.12 121.006 103.809 120.862 104.472C120.711 105.147 120.639 105.746 120.646 106.267C120.641 106.859 120.712 107.429 120.86 107.975L118.649 106.608L123.129 99.3605L135.037 106.722Z" fill="#2B2B2B"/>
<path d="M115.123 116.638L116.759 118.448L112.873 121.963L111.237 120.153L115.123 116.638Z" fill="#2B2B2B"/>
</g>
<defs>
<clipPath id="clip0_2938_1554">
<rect width="147" height="146" fill="white"/>
</clipPath>
</defs>
</svg>
